<svg xmlns="http://www.w3.org/2000/svg" viewBox="-124.429 -29.429 1693.863 1197.143"><rect width="1000%" height="1000%" x="-500%" y="-500%" fill="#EEEEEE"/><path fill="none" stroke="#EEEEEE" stroke-width="8" d="M649.44 22.581l-.01-.01V261h2.93"/><defs><linearGradient id="a" x1="0%" x2="50%" y1="0%" y2="50%"><stop offset="0%" stop-color="#2ECB70"/><stop offset="100%" stop-color="#99CBED"/></linearGradient></defs><path fill="none" stroke="url(#a)" stroke-width="3" d="M649.44 22.581l-.01-.01V261h2.93"/><path fill="none" stroke="url(#a)" stroke-width="1.5" d="M669.44 117.51l-2.01-.01v8h2M673.44 117.51l1.99-.01v8h-2"/><path fill="none" stroke="#EEEEEE" stroke-width="8" d="M652.37 302.01l-.01-.01v278.429h-3.286"/><defs><linearGradient id="b" x1="0%" x2="50%" y1="0%" y2="50%"><stop offset="0%" stop-color="#99CBED"/><stop offset="100%" stop-color="#99CBED"/></linearGradient></defs><path fill="none" stroke="url(#b)" stroke-width="3" d="M652.37 302.01l-.01-.01v278.429h-3.286"/><path fill="none" stroke="url(#b)" stroke-width="1.5" d="M672.37 443.939l-2.01-.01v8h2M676.37 443.939l1.99-.01v8h-2"/><path fill="none" stroke="#EEEEEE" stroke-width="8" d="M495.654 179.01l-.01-.01H80.859v91.286"/><defs><linearGradient id="c" x1="0%" x2="50%" y1="0%" y2="50%"><stop offset="0%" stop-color="#99CBED"/><stop offset="100%" stop-color="#2ECB70"/></linearGradient></defs><path fill="none" stroke="url(#c)" stroke-width="3" d="M495.654 179.01l-.01-.01H80.859v91.286"/><path fill="none" stroke="#EEEEEE" stroke-width="8" d="M730.728 261.01l-.01-.01h351.57V73.143"/><defs><linearGradient id="d" x1="0%" x2="50%" y1="0%" y2="50%"><stop offset="0%" stop-color="#99CBED"/><stop offset="100%" stop-color="#97E5B8"/></linearGradient></defs><path fill="none" stroke="url(#d)" stroke-width="3" d="M730.728 261.01l-.01-.01h351.57V73.143"/><path fill="none" stroke="#EEEEEE" stroke-width="8" d="M574.012 220.01l-.01-.01H294.158v193.571"/><defs><linearGradient id="e" x1="0%" x2="50%" y1="0%" y2="50%"><stop offset="0%" stop-color="#99CBED"/><stop offset="100%" stop-color="#97E5B8"/></linearGradient></defs><path fill="none" stroke="url(#e)" stroke-width="3" d="M574.012 220.01l-.01-.01H294.158v193.571"/><path fill="none" stroke="#EEEEEE" stroke-width="8" d="M250.644 400.581l-.01-.01H34.81v167.286"/><defs><linearGradient id="f" x1="0%" x2="50%" y1="0%" y2="50%"><stop offset="0%" stop-color="#97E5B8"/><stop offset="100%" stop-color="#2ECB70"/></linearGradient></defs><path fill="none" stroke="url(#f)" stroke-width="3" d="M250.644 400.581l-.01-.01H34.81v167.286"/><path fill="none" stroke="#EEEEEE" stroke-width="8" d="M649.084 619.105l-.01-.01v250.62h8.715"/><defs><linearGradient id="g" x1="0%" x2="50%" y1="0%" y2="50%"><stop offset="0%" stop-color="#99CBED"/><stop offset="100%" stop-color="#99CBED"/></linearGradient></defs><path fill="none" stroke="url(#g)" stroke-width="3" d="M649.084 619.105l-.01-.01v250.62h8.715"/><path fill="none" stroke="url(#g)" stroke-width="1.5" d="M669.084 768.224l-2.01-.01v8h2M673.084 768.224l1.99-.01v8h-2"/><path fill="none" stroke="#EEEEEE" stroke-width="8" d="M794.991 541.772l-.01-.01h536.236V732"/><defs><linearGradient id="h" x1="0%" x2="50%" y1="0%" y2="50%"><stop offset="0%" stop-color="#99CBED"/><stop offset="100%" stop-color="#97E5B8"/></linearGradient></defs><path fill="none" stroke="url(#h)" stroke-width="3" d="M794.991 541.772l-.01-.01h536.236V732"/><path fill="none" stroke="url(#h)" stroke-width="1.5" d="M1351.227 679.51l-2.01-.01v8h2M1355.227 679.51l1.99-.01v8h-2"/><path fill="none" stroke="#EEEEEE" stroke-width="8" d="M722.038 580.439l-.01-.01h374.76v50.285"/><defs><linearGradient id="i" x1="0%" x2="50%" y1="0%" y2="50%"><stop offset="0%" stop-color="#99CBED"/><stop offset="100%" stop-color="#97E5B8"/></linearGradient></defs><path fill="none" stroke="url(#i)" stroke-width="3" d="M722.038 580.439l-.01-.01h374.76v50.285"/><path fill="none" stroke="url(#i)" stroke-width="1.5" d="M1116.798 578.224l-2.01-.01v8h2M1120.798 578.224l1.99-.01v8h-2"/><path fill="none" stroke="#EEEEEE" stroke-width="8" d="M1096.798 630.724l-.01-.01v274h-84.285"/><defs><linearGradient id="j" x1="0%" x2="50%" y1="0%" y2="50%"><stop offset="0%" stop-color="#97E5B8"/><stop offset="100%" stop-color="#99CBED"/></linearGradient></defs><path fill="none" stroke="url(#j)" stroke-width="3" d="M1096.798 630.724l-.01-.01v274h-84.285"/><path fill="none" stroke="url(#j)" stroke-width="1.5" d="M1116.798 824.224l-2.01-.01v8h2M1120.798 824.224l1.99-.01v8h-2"/><path fill="none" stroke="#EEEEEE" stroke-width="8" d="M1331.227 732.01l-.01-.01v121h-2.788"/><defs><linearGradient id="k" x1="0%" x2="50%" y1="0%" y2="50%"><stop offset="0%" stop-color="#97E5B8"/><stop offset="100%" stop-color="#99CBED"/></linearGradient></defs><path fill="none" stroke="url(#k)" stroke-width="3" d="M1331.227 732.01l-.01-.01v121h-2.788"/><path fill="none" stroke="url(#k)" stroke-width="1.5" d="M1351.227 779.51l-2.01-.01v8h2M1355.227 779.51l1.99-.01v8h-2"/><path fill="none" stroke="#EEEEEE" stroke-width="8" d="M503.178 503.105l-.01-.01H207.11V387.571"/><defs><linearGradient id="l" x1="100%" x2="50%" y1="100%" y2="50%"><stop offset="0%" stop-color="#99CBED"/><stop offset="100%" stop-color="#97E5B8"/></linearGradient></defs><path fill="none" stroke="url(#l)" stroke-width="3" d="M503.178 503.105l-.01-.01H207.11V387.571"/><path fill="none" stroke="url(#l)" stroke-width="1.5" d="M227.12 460.081l-2.01-.01v8h2M231.12 460.081l1.99-.01v8h-2"/><path fill="none" stroke="#EEEEEE" stroke-width="8" d="M576.131 541.772l-.01-.01H264v191.38"/><defs><linearGradient id="m" x1="0%" x2="50%" y1="0%" y2="50%"><stop offset="0%" stop-color="#99CBED"/><stop offset="100%" stop-color="#97E5B8"/></linearGradient></defs><path fill="none" stroke="url(#m)" stroke-width="3" d="M576.131 541.772l-.01-.01H264v191.38"/><path fill="none" stroke="url(#m)" stroke-width="1.5" d="M284.01 659.653l-2.01-.01v8h2M288.01 659.653l1.99-.01v8h-2"/><path fill="none" stroke="#EEEEEE" stroke-width="8" d="M657.799 869.724l-.01-.01H289.074v3.715"/><defs><linearGradient id="n" x1="0%" x2="50%" y1="0%" y2="50%"><stop offset="0%" stop-color="#99CBED"/><stop offset="100%" stop-color="#97E5B8"/></linearGradient></defs><path fill="none" stroke="url(#n)" stroke-width="3" d="M657.799 869.724l-.01-.01H289.074v3.715"/><path fill="none" stroke="url(#n)" stroke-width="1.5" d="M480.3 849.724l-2.01-.01v8h2M484.3 849.724l1.99-.01v8h-2"/><path fill="none" stroke="#EEEEEE" stroke-width="8" d="M289.084 873.439l-.01-.01v215.285H113.145"/><defs><linearGradient id="o" x1="0%" x2="50%" y1="0%" y2="50%"><stop offset="0%" stop-color="#97E5B8"/><stop offset="100%" stop-color="#2ECB70"/></linearGradient></defs><path fill="none" stroke="url(#o)" stroke-width="3" d="M289.084 873.439l-.01-.01v215.285H113.145"/><path fill="none" stroke="url(#o)" stroke-width="1.5" d="M264.228 1068.724l-2.01-.01v8h2M268.228 1068.724l1.99-.01v8h-2"/><path fill="none" stroke="#EEEEEE" stroke-width="8" d="M69.63 1075.724l-.01-.01V541.857H-34.81"/><defs><linearGradient id="p" x1="100%" x2="50%" y1="100%" y2="50%"><stop offset="0%" stop-color="#2ECB70"/><stop offset="100%" stop-color="#2ECB70"/></linearGradient></defs><path fill="none" stroke="url(#p)" stroke-width="3" d="M69.63 1075.724l-.01-.01V541.857H-34.81"/><path fill="none" stroke="url(#p)" stroke-width="1.5" d="M89.63 614.367l-2.01-.01v8h2M93.63 614.367l1.99-.01v8h-2"/><path fill="none" stroke="#EEEEEE" stroke-width="8" d="M156.68 1101.724l-.01-.01h357.832v8.572"/><defs><linearGradient id="q" x1="0%" x2="50%" y1="0%" y2="50%"><stop offset="0%" stop-color="#2ECB70"/><stop offset="100%" stop-color="#3397DA"/></linearGradient></defs><path fill="none" stroke="url(#q)" stroke-width="3" d="M156.68 1101.724l-.01-.01h357.832v8.572"/><path fill="none" stroke="url(#q)" stroke-width="1.5" d="M329.51 1081.724l-2.01-.01v8h2M333.51 1081.724l1.99-.01v8h-2"/><path fill="#FFFFFF" stroke="#2ECB70" stroke-width="3" d="M463.856-9.429h371.148v64H463.856z"/><path fill="#2ecb70" stroke="#2ecb70" d="M464.856 15.571h371.148"/><path fill="none" stroke="#2ECB70" stroke-width="3" d="M463.856-9.429h371.148v64H463.856z"/><text x="473.856" y="8.571" style="font:700 16px 'Lucida Console',monospace" fill="#000000">ConformityVocabularyCatalog</text><text x="473.856" y="32.571" style="font:300 14px 'Lucida Console',monospace" fill="#000000">catalogUsage:</text><text x="587.429" y="32.571" style="font:300 14px 'Lucida Console',monospace" fill="#02b57b">Text</text><text x="473.856" y="46.571" style="font:300 14px 'Lucida Console',monospace" fill="#000000">conformityScheme:</text><text x="621.144" y="46.571" style="font:300 14px 'Lucida Console',monospace" fill="#547000">untp.ConformityScheme[]</text><path fill="#FFFFFF" stroke="#99CBED" stroke-width="3" d="M417.285 138h470.149v246H417.285z"/><path fill="#99cbed" stroke="#99cbed" d="M418.285 163h470.15"/><path fill="none" stroke="#99CBED" stroke-width="3" d="M417.285 138h470.149v246H417.285z"/><text x="427.285" y="156" style="font:700 16px 'Lucida Console',monospace" fill="#000000">untp.ConformityScheme</text><text x="427.285" y="180" style="font:700 14px 'Lucida Console',monospace" fill="#000000">* id:</text><text x="473.429" y="180" style="font:300 14px 'Lucida Console',monospace" fill="#C9A30B">URI</text><text x="427.285" y="194" style="font:700 14px 'Lucida Console',monospace" fill="#000000">* name:</text><text x="490.286" y="194" style="font:300 14px 'Lucida Console',monospace" fill="#547000">Text</text><text x="444.143" y="208" style="font:300 14px 'Lucida Console',monospace" fill="#000000">description:</text><text x="549.287" y="208" style="font:300 14px 'Lucida Console',monospace" fill="#547000">Text</text><text x="427.285" y="222" style="font:700 14px 'Lucida Console',monospace" fill="#000000">* owner:</text><text x="498.715" y="222" style="font:300 14px 'Lucida Console',monospace" fill="#02b57b">Party</text><text x="427.285" y="236" style="font:700 14px 'Lucida Console',monospace" fill="#000000">* endorsementLevel:</text><text x="591.431" y="236" style="font:300 14px 'Lucida Console',monospace" fill="#530abb">Code(SchemeEndorsementLevel)</text><text x="444.143" y="250" style="font:300 14px 'Lucida Console',monospace" fill="#000000">endorsement:</text><text x="549.287" y="250" style="font:300 14px 'Lucida Console',monospace" fill="#02b57b">Endorsement</text><text x="444.143" y="264" style="font:300 14px 'Lucida Console',monospace" fill="#000000">schemeScoringFramework:</text><text x="642.003" y="264" style="font:300 14px 'Lucida Console',monospace" fill="#02b57b">ScoringFramework</text><text x="427.285" y="278" style="font:700 14px 'Lucida Console',monospace" fill="#000000">* documentation:</text><text x="566.145" y="278" style="font:300 14px 'Lucida Console',monospace" fill="#02b57b">URI</text><text x="444.143" y="292" style="font:300 14px 'Lucida Console',monospace" fill="#000000">licenseType:</text><text x="549.287" y="292" style="font:300 14px 'Lucida Console',monospace" fill="#530abb">Code(LicenseType)</text><text x="444.143" y="306" style="font:300 14px 'Lucida Console',monospace" fill="#000000">establishedDate:</text><text x="583.002" y="306" style="font:300 14px 'Lucida Console',monospace" fill="#02b57b">Date</text><text x="444.143" y="320" style="font:300 14px 'Lucida Console',monospace" fill="#000000">geographicScope:</text><text x="583.002" y="320" style="font:300 14px 'Lucida Console',monospace" fill="#02b57b">Classification[]</text><text x="444.143" y="334" style="font:300 14px 'Lucida Console',monospace" fill="#000000">industryScope:</text><text x="566.145" y="334" style="font:300 14px 'Lucida Console',monospace" fill="#02b57b">Classification[]</text><text x="444.143" y="348" style="font:300 14px 'Lucida Console',monospace" fill="#000000">trustmark:</text><text x="532.43" y="348" style="font:300 14px 'Lucida Console',monospace" fill="#02b57b">Image</text><text x="444.143" y="362" style="font:300 14px 'Lucida Console',monospace" fill="#000000">conformsTo:</text><text x="540.859" y="362" style="font:300 14px 'Lucida Console',monospace" fill="#02b57b">Link</text><text x="444.143" y="376" style="font:300 14px 'Lucida Console',monospace" fill="#000000">includedProfile:</text><text x="583.002" y="376" style="font:300 14px 'Lucida Console',monospace" fill="#02b57b">ConformityProfile[]</text><path fill="#FFFFFF" stroke="#99CBED" stroke-width="3" d="M430.214 464.429h437.721v232H430.214z"/><path fill="#99cbed" stroke="#99cbed" d="M431.214 489.429h437.72"/><path fill="none" stroke="#99CBED" stroke-width="3" d="M430.214 464.429h437.721v232H430.214z"/><text x="440.214" y="482.429" style="font:700 16px 'Lucida Console',monospace" fill="#000000">untp.ConformityProfile</text><text x="440.214" y="506.429" style="font:700 14px 'Lucida Console',monospace" fill="#000000">* id:</text><text x="486.358" y="506.429" style="font:300 14px 'Lucida Console',monospace" fill="#C9A30B">URI</text><text x="440.214" y="520.429" style="font:700 14px 'Lucida Console',monospace" fill="#000000">* name:</text><text x="503.215" y="520.429" style="font:300 14px 'Lucida Console',monospace" fill="#547000">Text</text><text x="457.071" y="534.429" style="font:300 14px 'Lucida Console',monospace" fill="#000000">description:</text><text x="562.216" y="534.429" style="font:300 14px 'Lucida Console',monospace" fill="#547000">Text</text><text x="440.214" y="548.429" style="font:700 14px 'Lucida Console',monospace" fill="#000000">* version:</text><text x="528.501" y="548.429" style="font:300 14px 'Lucida Console',monospace" fill="#02b57b">Text</text><text x="440.214" y="562.429" style="font:700 14px 'Lucida Console',monospace" fill="#000000">* validFrom:</text><text x="545.359" y="562.429" style="font:300 14px 'Lucida Console',monospace" fill="#02b57b">Date</text><text x="440.214" y="576.429" style="font:700 14px 'Lucida Console',monospace" fill="#000000">* status:</text><text x="520.072" y="576.429" style="font:300 14px 'Lucida Console',monospace" fill="#530abb">Code(CriterionStatus)</text><text x="457.071" y="590.429" style="font:300 14px 'Lucida Console',monospace" fill="#000000">subjectType:</text><text x="562.216" y="590.429" style="font:300 14px 'Lucida Console',monospace" fill="#530abb">Code(AssessmentSubjectType)</text><text x="457.071" y="604.429" style="font:300 14px 'Lucida Console',monospace" fill="#000000">standardAlignment:</text><text x="612.788" y="604.429" style="font:300 14px 'Lucida Console',monospace" fill="#02b57b">StandardAlignment[]</text><text x="457.071" y="618.429" style="font:300 14px 'Lucida Console',monospace" fill="#000000">regulatoryAlignment:</text><text x="629.646" y="618.429" style="font:300 14px 'Lucida Console',monospace" fill="#02b57b">RegulatoryAlignment[]</text><text x="457.071" y="632.429" style="font:300 14px 'Lucida Console',monospace" fill="#000000">criterionScoringFramework:</text><text x="680.218" y="632.429" style="font:300 14px 'Lucida Console',monospace" fill="#02b57b">ScoringFramework[]</text><text x="457.071" y="646.429" style="font:300 14px 'Lucida Console',monospace" fill="#000000">documentation:</text><text x="579.073" y="646.429" style="font:300 14px 'Lucida Console',monospace" fill="#02b57b">URI</text><text x="440.214" y="660.429" style="font:700 14px 'Lucida Console',monospace" fill="#000000">* criterion:</text><text x="545.359" y="660.429" style="font:300 14px 'Lucida Console',monospace" fill="#02b57b">Criterion[]</text><text x="457.071" y="674.429" style="font:300 14px 'Lucida Console',monospace" fill="#000000">scope:</text><text x="511.644" y="674.429" style="font:300 14px 'Lucida Console',monospace" fill="#02b57b">Classification[]</text><text x="440.214" y="688.429" style="font:700 14px 'Lucida Console',monospace" fill="#000000">* scheme:</text><text x="520.072" y="688.429" style="font:300 14px 'Lucida Console',monospace" fill="#02b57b">ConformityScheme</text><path fill="#FFFFFF" stroke="#97E5B8" stroke-width="3" d="M-45.714 224.286h253.146v92H-45.714z"/><path fill="#97e5b8" stroke="#97e5b8" d="M-44.714 249.286h253.146"/><path fill="none" stroke="#97E5B8" stroke-width="3" d="M-45.714 224.286h253.146v92H-45.714z"/><text x="-35.714" y="242.286" style="font:700 16px 'Lucida Console',monospace" fill="#000000">untp.Image</text><text x="-35.714" y="266.286" style="font:700 14px 'Lucida Console',monospace" fill="#000000">* name:</text><text x="27.287" y="266.286" style="font:300 14px 'Lucida Console',monospace" fill="#547000">Text</text><text x="-18.857" y="280.286" style="font:300 14px 'Lucida Console',monospace" fill="#000000">description:</text><text x="86.288" y="280.286" style="font:300 14px 'Lucida Console',monospace" fill="#547000">Text</text><text x="-35.714" y="294.286" style="font:700 14px 'Lucida Console',monospace" fill="#000000">* imageData:</text><text x="69.43" y="294.286" style="font:300 14px 'Lucida Console',monospace" fill="#02b57b">Base64</text><text x="-35.714" y="308.286" style="font:700 14px 'Lucida Console',monospace" fill="#000000">* mediaType:</text><text x="69.43" y="308.286" style="font:300 14px 'Lucida Console',monospace" fill="#530abb">Code(MimeType)</text><path fill="#FFFFFF" stroke="#99CBED" stroke-width="3" d="M947.143 234.286h333.005v176H947.143z"/><path fill="#99cbed" stroke="#99cbed" d="M948.143 259.286h333.005"/><path fill="none" stroke="#99CBED" stroke-width="3" d="M947.143 234.286h333.005v176H947.143z"/><text x="957.143" y="252.286" style="font:700 16px 'Lucida Console',monospace" fill="#000000">untp.Party</text><text x="957.143" y="276.286" style="font:700 14px 'Lucida Console',monospace" fill="#000000">* id:</text><text x="1003.286" y="276.286" style="font:300 14px 'Lucida Console',monospace" fill="#C9A30B">URI</text><text x="957.143" y="290.286" style="font:700 14px 'Lucida Console',monospace" fill="#000000">* name:</text><text x="1020.144" y="290.286" style="font:300 14px 'Lucida Console',monospace" fill="#547000">Text</text><text x="974" y="304.286" style="font:300 14px 'Lucida Console',monospace" fill="#000000">description:</text><text x="1079.145" y="304.286" style="font:300 14px 'Lucida Console',monospace" fill="#547000">Text</text><text x="974" y="318.286" style="font:300 14px 'Lucida Console',monospace" fill="#000000">registeredId:</text><text x="1087.574" y="318.286" style="font:300 14px 'Lucida Console',monospace" fill="#02b57b">Text</text><text x="974" y="332.286" style="font:300 14px 'Lucida Console',monospace" fill="#000000">idScheme:</text><text x="1053.859" y="332.286" style="font:300 14px 'Lucida Console',monospace" fill="#02b57b">IdentifierScheme</text><text x="974" y="346.286" style="font:300 14px 'Lucida Console',monospace" fill="#000000">registrationCountry:</text><text x="1146.574" y="346.286" style="font:300 14px 'Lucida Console',monospace" fill="#02b57b">Country</text><text x="974" y="360.286" style="font:300 14px 'Lucida Console',monospace" fill="#000000">partyAddress:</text><text x="1087.574" y="360.286" style="font:300 14px 'Lucida Console',monospace" fill="#02b57b">Address</text><text x="974" y="374.286" style="font:300 14px 'Lucida Console',monospace" fill="#000000">organisationWebsite:</text><text x="1146.574" y="374.286" style="font:300 14px 'Lucida Console',monospace" fill="#02b57b">URI</text><text x="974" y="388.286" style="font:300 14px 'Lucida Console',monospace" fill="#000000">industryCategory:</text><text x="1121.288" y="388.286" style="font:300 14px 'Lucida Console',monospace" fill="#02b57b">Classification[]</text><text x="974" y="402.286" style="font:300 14px 'Lucida Console',monospace" fill="#000000">partyAlsoKnownAs:</text><text x="1121.288" y="402.286" style="font:300 14px 'Lucida Console',monospace" fill="#02b57b">Party[]</text><path fill="#FFFFFF" stroke="#97E5B8" stroke-width="3" d="M955.714 27.143h253.146v92H955.714z"/><path fill="#97e5b8" stroke="#97e5b8" d="M956.714 52.143h253.147"/><path fill="none" stroke="#97E5B8" stroke-width="3" d="M955.714 27.143h253.146v92H955.714z"/><text x="965.714" y="45.143" style="font:700 16px 'Lucida Console',monospace" fill="#000000">untp.Endorsement</text><text x="965.714" y="69.143" style="font:700 14px 'Lucida Console',monospace" fill="#000000">* name:</text><text x="1028.715" y="69.143" style="font:300 14px 'Lucida Console',monospace" fill="#02b57b">Text</text><text x="982.572" y="83.143" style="font:300 14px 'Lucida Console',monospace" fill="#000000">trustmark:</text><text x="1070.859" y="83.143" style="font:300 14px 'Lucida Console',monospace" fill="#02b57b">Image</text><text x="965.714" y="97.143" style="font:700 14px 'Lucida Console',monospace" fill="#000000">* issuingAuthority:</text><text x="1129.86" y="97.143" style="font:300 14px 'Lucida Console',monospace" fill="#02b57b">Party</text><text x="982.572" y="111.143" style="font:300 14px 'Lucida Console',monospace" fill="#000000">endorsementEvidence:</text><text x="1155.146" y="111.143" style="font:300 14px 'Lucida Console',monospace" fill="#02b57b">Link</text><path fill="#FFFFFF" stroke="#97E5B8" stroke-width="3" d="M120.061 361.571h261.146v78H120.061z"/><path fill="#97e5b8" stroke="#97e5b8" d="M121.06 386.571h261.147"/><path fill="none" stroke="#97E5B8" stroke-width="3" d="M120.061 361.571h261.146v78H120.061z"/><text x="130.061" y="379.571" style="font:700 16px 'Lucida Console',monospace" fill="#000000">untp.ScoringFramework</text><text x="130.061" y="403.571" style="font:700 14px 'Lucida Console',monospace" fill="#000000">* name:</text><text x="193.062" y="403.571" style="font:300 14px 'Lucida Console',monospace" fill="#02b57b">Text</text><text x="130.061" y="417.571" style="font:700 14px 'Lucida Console',monospace" fill="#000000">* description:</text><text x="252.063" y="417.571" style="font:300 14px 'Lucida Console',monospace" fill="#02b57b">Text</text><text x="130.061" y="431.571" style="font:700 14px 'Lucida Console',monospace" fill="#000000">* score:</text><text x="201.49" y="431.571" style="font:300 14px 'Lucida Console',monospace" fill="#02b57b">Score[]</text><path fill="#FFFFFF" stroke="#97E5B8" stroke-width="3" d="M-104.429 515.857h208.857v78h-208.857z"/><path fill="#97e5b8" stroke="#97e5b8" d="M-103.429 540.857H105.43"/><path fill="none" stroke="#97E5B8" stroke-width="3" d="M-104.429 515.857h208.857v78h-208.857z"/><text x="-94.429" y="533.857" style="font:700 16px 'Lucida Console',monospace" fill="#000000">untp.Score</text><text x="-94.429" y="557.857" style="font:700 14px 'Lucida Console',monospace" fill="#000000">* code:</text><text x="-31.428" y="557.857" style="font:300 14px 'Lucida Console',monospace" fill="#02b57b">Text</text><text x="-77.571" y="571.857" style="font:300 14px 'Lucida Console',monospace" fill="#000000">rank:</text><text x="-31.428" y="571.857" style="font:300 14px 'Lucida Console',monospace" fill="#02b57b">Integer</text><text x="-77.571" y="585.857" style="font:300 14px 'Lucida Console',monospace" fill="#000000">definition:</text><text x="19.145" y="585.857" style="font:300 14px 'Lucida Console',monospace" fill="#02b57b">Text</text><path fill="#FFFFFF" stroke="#99CBED" stroke-width="3" d="M497.715 788.714h320.147v162H497.715z"/><path fill="#99cbed" stroke="#99cbed" d="M498.715 813.714h320.147"/><path fill="none" stroke="#99CBED" stroke-width="3" d="M497.715 788.714h320.147v162H497.715z"/><text x="507.715" y="806.714" style="font:700 16px 'Lucida Console',monospace" fill="#000000">untp.Criterion</text><text x="507.715" y="830.714" style="font:700 14px 'Lucida Console',monospace" fill="#000000">* id:</text><text x="553.858" y="830.714" style="font:300 14px 'Lucida Console',monospace" fill="#C9A30B">URI</text><text x="507.715" y="844.714" style="font:700 14px 'Lucida Console',monospace" fill="#000000">* name:</text><text x="570.716" y="844.714" style="font:300 14px 'Lucida Console',monospace" fill="#547000">Text</text><text x="524.572" y="858.714" style="font:300 14px 'Lucida Console',monospace" fill="#000000">description:</text><text x="629.717" y="858.714" style="font:300 14px 'Lucida Console',monospace" fill="#547000">Text</text><text x="507.715" y="872.714" style="font:700 14px 'Lucida Console',monospace" fill="#000000">* version:</text><text x="596.002" y="872.714" style="font:300 14px 'Lucida Console',monospace" fill="#02b57b">Text</text><text x="507.715" y="886.714" style="font:700 14px 'Lucida Console',monospace" fill="#000000">* status:</text><text x="587.573" y="886.714" style="font:300 14px 'Lucida Console',monospace" fill="#530abb">Code(CriterionStatus)</text><text x="524.572" y="900.714" style="font:300 14px 'Lucida Console',monospace" fill="#000000">documentation:</text><text x="646.574" y="900.714" style="font:300 14px 'Lucida Console',monospace" fill="#02b57b">URI</text><text x="507.715" y="914.714" style="font:700 14px 'Lucida Console',monospace" fill="#000000">* conformityTopic:</text><text x="663.432" y="914.714" style="font:300 14px 'Lucida Console',monospace" fill="#02b57b">ConformityTopic</text><text x="507.715" y="928.714" style="font:700 14px 'Lucida Console',monospace" fill="#000000">* passThreshold:</text><text x="646.574" y="928.714" style="font:300 14px 'Lucida Console',monospace" fill="#02b57b">PassThreshold[]</text><text x="524.572" y="942.714" style="font:300 14px 'Lucida Console',monospace" fill="#000000">tag:</text><text x="562.287" y="942.714" style="font:300 14px 'Lucida Console',monospace" fill="#02b57b">Text[]</text><path fill="#FFFFFF" stroke="#97E5B8" stroke-width="3" d="M1133 700h396.435v64H1133z"/><path fill="#97e5b8" stroke="#97e5b8" d="M1134 725h396.434"/><path fill="none" stroke="#97E5B8" stroke-width="3" d="M1133 700h396.435v64H1133z"/><text x="1143" y="718" style="font:700 16px 'Lucida Console',monospace" fill="#000000">untp.StandardAlignment</text><text x="1143" y="742" style="font:700 14px 'Lucida Console',monospace" fill="#000000">* standard:</text><text x="1239.716" y="742" style="font:300 14px 'Lucida Console',monospace" fill="#02b57b">Standard</text><text x="1159.857" y="756" style="font:300 14px 'Lucida Console',monospace" fill="#000000">alignmentLevel:</text><text x="1290.288" y="756" style="font:300 14px 'Lucida Console',monospace" fill="#530abb">Code(SchemeAlignmentLevel)</text><path fill="#FFFFFF" stroke="#97E5B8" stroke-width="3" d="M898.571 598.714h396.435v64H898.571z"/><path fill="#97e5b8" stroke="#97e5b8" d="M899.571 623.714h396.435"/><path fill="none" stroke="#97E5B8" stroke-width="3" d="M898.571 598.714h396.435v64H898.571z"/><text x="908.571" y="616.714" style="font:700 16px 'Lucida Console',monospace" fill="#000000">untp.RegulatoryAlignment</text><text x="908.571" y="640.714" style="font:700 14px 'Lucida Console',monospace" fill="#000000">* regulation:</text><text x="1022.144" y="640.714" style="font:300 14px 'Lucida Console',monospace" fill="#02b57b">Regulation</text><text x="925.429" y="654.714" style="font:300 14px 'Lucida Console',monospace" fill="#000000">alignmentLevel:</text><text x="1055.859" y="654.714" style="font:300 14px 'Lucida Console',monospace" fill="#530abb">Code(SchemeAlignmentLevel)</text><path fill="#FFFFFF" stroke="#99CBED" stroke-width="3" d="M869.286 844.714h286.433v120H869.286z"/><path fill="#99cbed" stroke="#99cbed" d="M870.286 869.714h286.433"/><path fill="none" stroke="#99CBED" stroke-width="3" d="M869.286 844.714h286.433v120H869.286z"/><text x="879.286" y="862.714" style="font:700 16px 'Lucida Console',monospace" fill="#000000">untp.Regulation</text><text x="879.286" y="886.714" style="font:700 14px 'Lucida Console',monospace" fill="#000000">* id:</text><text x="925.43" y="886.714" style="font:300 14px 'Lucida Console',monospace" fill="#C9A30B">URI</text><text x="879.286" y="900.714" style="font:700 14px 'Lucida Console',monospace" fill="#000000">* name:</text><text x="942.287" y="900.714" style="font:300 14px 'Lucida Console',monospace" fill="#547000">Text</text><text x="896.144" y="914.714" style="font:300 14px 'Lucida Console',monospace" fill="#000000">description:</text><text x="1001.288" y="914.714" style="font:300 14px 'Lucida Console',monospace" fill="#547000">Text</text><text x="879.286" y="928.714" style="font:700 14px 'Lucida Console',monospace" fill="#000000">* jurisdictionCountry:</text><text x="1068.718" y="928.714" style="font:300 14px 'Lucida Console',monospace" fill="#02b57b">Country</text><text x="879.286" y="942.714" style="font:700 14px 'Lucida Console',monospace" fill="#000000">* administeredBy:</text><text x="1026.574" y="942.714" style="font:300 14px 'Lucida Console',monospace" fill="#02b57b">Party</text><text x="896.144" y="956.714" style="font:300 14px 'Lucida Console',monospace" fill="#000000">effectiveDate:</text><text x="1018.146" y="956.714" style="font:300 14px 'Lucida Console',monospace" fill="#02b57b">Date</text><path fill="#FFFFFF" stroke="#99CBED" stroke-width="3" d="M1220 800h216.857v106H1220z"/><path fill="#99cbed" stroke="#99cbed" d="M1221 825h216.857"/><path fill="none" stroke="#99CBED" stroke-width="3" d="M1220 800h216.857v106H1220z"/><text x="1230" y="818" style="font:700 16px 'Lucida Console',monospace" fill="#000000">untp.Standard</text><text x="1230" y="842" style="font:700 14px 'Lucida Console',monospace" fill="#000000">* id:</text><text x="1276.144" y="842" style="font:300 14px 'Lucida Console',monospace" fill="#C9A30B">URI</text><text x="1230" y="856" style="font:700 14px 'Lucida Console',monospace" fill="#000000">* name:</text><text x="1293.001" y="856" style="font:300 14px 'Lucida Console',monospace" fill="#547000">Text</text><text x="1246.857" y="870" style="font:300 14px 'Lucida Console',monospace" fill="#000000">description:</text><text x="1352.002" y="870" style="font:300 14px 'Lucida Console',monospace" fill="#547000">Text</text><text x="1230" y="884" style="font:700 14px 'Lucida Console',monospace" fill="#000000">* issuingParty:</text><text x="1360.431" y="884" style="font:300 14px 'Lucida Console',monospace" fill="#02b57b">Party</text><text x="1246.857" y="898" style="font:300 14px 'Lucida Console',monospace" fill="#000000">issueDate:</text><text x="1335.145" y="898" style="font:300 14px 'Lucida Console',monospace" fill="#02b57b">Date</text><path fill="#FFFFFF" stroke="#97E5B8" stroke-width="3" d="M139.06 680.143h249.881v106H139.06z"/><path fill="#97e5b8" stroke="#97e5b8" d="M140.06 705.143h249.88"/><path fill="none" stroke="#97E5B8" stroke-width="3" d="M139.06 680.143h249.881v106H139.06z"/><text x="149.06" y="698.143" style="font:700 16px 'Lucida Console',monospace" fill="#000000">untp.Classification</text><text x="149.06" y="722.143" style="font:700 14px 'Lucida Console',monospace" fill="#000000">* code:</text><text x="212.061" y="722.143" style="font:300 14px 'Lucida Console',monospace" fill="#02b57b">Text</text><text x="149.06" y="736.143" style="font:700 14px 'Lucida Console',monospace" fill="#000000">* name:</text><text x="212.061" y="736.143" style="font:300 14px 'Lucida Console',monospace" fill="#02b57b">Text</text><text x="165.917" y="750.143" style="font:300 14px 'Lucida Console',monospace" fill="#000000">definition:</text><text x="262.633" y="750.143" style="font:300 14px 'Lucida Console',monospace" fill="#02b57b">Text</text><text x="149.06" y="764.143" style="font:700 14px 'Lucida Console',monospace" fill="#000000">* schemeID:</text><text x="245.775" y="764.143" style="font:300 14px 'Lucida Console',monospace" fill="#02b57b">URI</text><text x="149.06" y="778.143" style="font:700 14px 'Lucida Console',monospace" fill="#000000">* schemeName:</text><text x="262.633" y="778.143" style="font:300 14px 'Lucida Console',monospace" fill="#02b57b">Text</text><path fill="#FFFFFF" stroke="#97E5B8" stroke-width="3" d="M118.357 841.429h341.434v64H118.357z"/><path fill="#97e5b8" stroke="#97e5b8" d="M119.357 866.429H460.79"/><path fill="none" stroke="#97E5B8" stroke-width="3" d="M118.357 841.429h341.434v64H118.357z"/><text x="128.357" y="859.429" style="font:700 16px 'Lucida Console',monospace" fill="#000000">untp.PassThreshold</text><text x="128.357" y="883.429" style="font:300 14px 'Lucida Console',monospace" fill="#000000">condition:</text><text x="216.644" y="883.429" style="font:300 14px 'Lucida Console',monospace" fill="#530abb">Code(PerformanceCondition)</text><text x="128.357" y="897.429" style="font:300 14px 'Lucida Console',monospace" fill="#000000">requiredPerformance:</text><text x="300.931" y="897.429" style="font:300 14px 'Lucida Console',monospace" fill="#02b57b">Performance</text><path fill="#FFFFFF" stroke="#97E5B8" stroke-width="3" d="M-17.428 1049.714h261.146v78H-17.428z"/><path fill="#97e5b8" stroke="#97e5b8" d="M-16.428 1074.714h261.146"/><path fill="none" stroke="#97E5B8" stroke-width="3" d="M-17.428 1049.714h261.146v78H-17.428z"/><text x="-7.428" y="1067.714" style="font:700 16px 'Lucida Console',monospace" fill="#000000">untp.Performance</text><text x="-7.428" y="1091.714" style="font:700 14px 'Lucida Console',monospace" fill="#000000">* metric:</text><text x="72.43" y="1091.714" style="font:300 14px 'Lucida Console',monospace" fill="#02b57b">PerformanceMetric</text><text x="9.429" y="1105.714" style="font:300 14px 'Lucida Console',monospace" fill="#000000">measure:</text><text x="80.859" y="1105.714" style="font:300 14px 'Lucida Console',monospace" fill="#02b57b">Measure</text><text x="9.429" y="1119.714" style="font:300 14px 'Lucida Console',monospace" fill="#000000">score:</text><text x="64.002" y="1119.714" style="font:300 14px 'Lucida Console',monospace" fill="#02b57b">Score</text><path fill="#FFFFFF" stroke="#99CBED" stroke-width="3" d="M350 1064.286h329.005v92H350z"/><path fill="#99cbed" stroke="#99cbed" d="M351 1089.286h329.005"/><path fill="none" stroke="#99CBED" stroke-width="3" d="M350 1064.286h329.005v92H350z"/><text x="360" y="1082.286" style="font:700 16px 'Lucida Console',monospace" fill="#000000">untp.PerformanceMetric</text><text x="360" y="1106.286" style="font:700 14px 'Lucida Console',monospace" fill="#000000">* id:</text><text x="406.144" y="1106.286" style="font:300 14px 'Lucida Console',monospace" fill="#C9A30B">URI</text><text x="360" y="1120.286" style="font:700 14px 'Lucida Console',monospace" fill="#000000">* name:</text><text x="423.001" y="1120.286" style="font:300 14px 'Lucida Console',monospace" fill="#547000">Text</text><text x="376.857" y="1134.286" style="font:300 14px 'Lucida Console',monospace" fill="#000000">definition:</text><text x="473.573" y="1134.286" style="font:300 14px 'Lucida Console',monospace" fill="#02b57b">Text</text><text x="360" y="1148.286" style="font:700 14px 'Lucida Console',monospace" fill="#000000">* allowedUnit:</text><text x="482.002" y="1148.286" style="font:300 14px 'Lucida Console',monospace" fill="#530abb">Code(UnitOfMeasure)[]</text></svg>