<svg xmlns="http://www.w3.org/2000/svg" viewBox="43.571 -109 1414.502 1056.857"><rect width="1000%" height="1000%" x="-500%" y="-500%" fill="#EEEEEE"/><path fill="none" stroke="#EEEEEE" stroke-width="8" d="M791.928.01l-.01-.01v243.192h-19.305"/><defs><linearGradient id="a" x1="0%" x2="50%" y1="0%" y2="50%"><stop offset="0%" stop-color="#3397DA"/><stop offset="100%" stop-color="#99CBED"/></linearGradient></defs><path fill="none" stroke="url(#a)" stroke-width="3" d="M791.928.01l-.01-.01v243.192h-19.305"/><path fill="none" stroke="#EEEEEE" stroke-width="8" d="M888.815 204.535l-.01-.01h343.909V84.81"/><defs><linearGradient id="b" x1="0%" x2="50%" y1="0%" y2="50%"><stop offset="0%" stop-color="#99CBED"/><stop offset="100%" stop-color="#97E5B8"/></linearGradient></defs><path fill="none" stroke="url(#b)" stroke-width="3" d="M888.815 204.535l-.01-.01h343.909V84.81"/><path fill="none" stroke="#EEEEEE" stroke-width="8" d="M714.527 204.535l-.01-.01H434.43v18.904"/><defs><linearGradient id="c" x1="100%" x2="50%" y1="100%" y2="50%"><stop offset="0%" stop-color="#99CBED"/><stop offset="100%" stop-color="#97E5B8"/></linearGradient></defs><path fill="none" stroke="url(#c)" stroke-width="3" d="M714.527 204.535l-.01-.01H434.43v18.904"/><path fill="none" stroke="url(#c)" stroke-width="1.5" d="M566.656 184.535l-2.01-.01v8h2M570.656 184.535l1.99-.01v8h-2"/><path fill="none" stroke="#EEEEEE" stroke-width="8" d="M434.44 223.439l-.01-.01H230.074V379.57"/><defs><linearGradient id="d" x1="0%" x2="50%" y1="0%" y2="50%"><stop offset="0%" stop-color="#97E5B8"/><stop offset="100%" stop-color="#99CBED"/></linearGradient></defs><path fill="none" stroke="url(#d)" stroke-width="3" d="M434.44 223.439l-.01-.01H230.074V379.57"/><path fill="none" stroke="url(#d)" stroke-width="1.5" d="M250.084 271.081l-2.01-.01v8h2M254.084 271.081l1.99-.01v8h-2"/><path fill="none" stroke="#EEEEEE" stroke-width="8" d="M656.43 165.869l-.01-.01H379.074V39"/><defs><linearGradient id="e" x1="100%" x2="50%" y1="100%" y2="50%"><stop offset="0%" stop-color="#99CBED"/><stop offset="100%" stop-color="#97E5B8"/></linearGradient></defs><path fill="none" stroke="url(#e)" stroke-width="3" d="M656.43 165.869l-.01-.01H379.074V39"/><path fill="none" stroke="#EEEEEE" stroke-width="8" d="M379.083 39.01l-.01-.01H175.286v105.857"/><defs><linearGradient id="f" x1="0%" x2="50%" y1="0%" y2="50%"><stop offset="0%" stop-color="#97E5B8"/><stop offset="100%" stop-color="#97E5B8"/></linearGradient></defs><path fill="none" stroke="url(#f)" stroke-width="3" d="M379.083 39.01l-.01-.01H175.286v105.857"/><path fill="none" stroke="#EEEEEE" stroke-width="8" d="M830.719 243.202l-.01-.01h332.65v14.522"/><defs><linearGradient id="g" x1="0%" x2="50%" y1="0%" y2="50%"><stop offset="0%" stop-color="#99CBED"/><stop offset="100%" stop-color="#97E5B8"/></linearGradient></defs><path fill="none" stroke="url(#g)" stroke-width="3" d="M830.719 243.202l-.01-.01h332.65v14.522"/><path fill="none" stroke="#EEEEEE" stroke-width="8" d="M1163.369 257.724l-.01-.01v149.82h12.067"/><defs><linearGradient id="h" x1="0%" x2="50%" y1="0%" y2="50%"><stop offset="0%" stop-color="#97E5B8"/><stop offset="100%" stop-color="#97E5B8"/></linearGradient></defs><path fill="none" stroke="url(#h)" stroke-width="3" d="M1163.369 257.724l-.01-.01v149.82h12.067"/><path fill="none" stroke="#EEEEEE" stroke-width="8" d="M772.623 281.869l-.01-.01v245.674h3.175"/><defs><linearGradient id="i" x1="0%" x2="50%" y1="0%" y2="50%"><stop offset="0%" stop-color="#99CBED"/><stop offset="100%" stop-color="#99CBED"/></linearGradient></defs><path fill="none" stroke="url(#i)" stroke-width="3" d="M772.623 281.869l-.01-.01v245.674h3.175"/><path fill="none" stroke="url(#i)" stroke-width="1.5" d="M792.623 412.043l-2.01-.01v8h2M796.623 412.043l1.99-.01v8h-2"/><path fill="none" stroke="#EEEEEE" stroke-width="8" d="M672.425 470.543l-.01-.01H427.288v241.038"/><defs><linearGradient id="j" x1="0%" x2="50%" y1="0%" y2="50%"><stop offset="0%" stop-color="#99CBED"/><stop offset="100%" stop-color="#97E5B8"/></linearGradient></defs><path fill="none" stroke="url(#j)" stroke-width="3" d="M672.425 470.543l-.01-.01H427.288v241.038"/><path fill="none" stroke="url(#j)" stroke-width="1.5" d="M447.298 652.081l-2.01-.01v8h2M451.298 652.081l1.99-.01v8h-2"/><path fill="none" stroke="#EEEEEE" stroke-width="8" d="M879.171 508.543l-.01-.01h375.693v174.233"/><defs><linearGradient id="k" x1="0%" x2="50%" y1="0%" y2="50%"><stop offset="0%" stop-color="#99CBED"/><stop offset="100%" stop-color="#99CBED"/></linearGradient></defs><path fill="none" stroke="url(#k)" stroke-width="3" d="M879.171 508.543l-.01-.01h375.693v174.233"/><path fill="none" stroke="url(#k)" stroke-width="1.5" d="M1274.864 581.276l-2.01-.01v8h2M1278.864 581.276l1.99-.01v8h-2"/><path fill="none" stroke="#EEEEEE" stroke-width="8" d="M362.011 692.081l-.01-.01H214.502V596"/><defs><linearGradient id="l" x1="100%" x2="50%" y1="100%" y2="50%"><stop offset="0%" stop-color="#97E5B8"/><stop offset="100%" stop-color="#99CBED"/></linearGradient></defs><path fill="none" stroke="url(#l)" stroke-width="3" d="M362.011 692.081l-.01-.01H214.502V596"/><path fill="none" stroke="url(#l)" stroke-width="1.5" d="M234.512 662.51l-2.01-.01v8h2M238.512 662.51l1.99-.01v8h-2"/><path fill="none" stroke="#EEEEEE" stroke-width="8" d="M427.298 731.081l-.01-.01v130.786h-119.43"/><defs><linearGradient id="m" x1="0%" x2="50%" y1="0%" y2="50%"><stop offset="0%" stop-color="#97E5B8"/><stop offset="100%" stop-color="#97E5B8"/></linearGradient></defs><path fill="none" stroke="url(#m)" stroke-width="3" d="M427.298 731.081l-.01-.01v130.786h-119.43"/><path fill="none" stroke="url(#m)" stroke-width="1.5" d="M447.298 795.367l-2.01-.01v8h2M451.298 795.367l1.99-.01v8h-2"/><path fill="none" stroke="#EEEEEE" stroke-width="8" d="M492.584 711.581l-.01-.01v151.715h74.569"/><defs><linearGradient id="n" x1="0%" x2="50%" y1="0%" y2="50%"><stop offset="0%" stop-color="#97E5B8"/><stop offset="100%" stop-color="#97E5B8"/></linearGradient></defs><path fill="none" stroke="url(#n)" stroke-width="3" d="M492.584 711.581l-.01-.01v151.715h74.569"/><path fill="none" stroke="url(#n)" stroke-width="1.5" d="M512.584 803.796l-2.01-.01v8h2M516.584 803.796l1.99-.01v8h-2"/><path fill="none" stroke="#EEEEEE" stroke-width="8" d="M741.34 508.543l-.01-.01v371.752h124.597"/><defs><linearGradient id="o" x1="0%" x2="50%" y1="0%" y2="50%"><stop offset="0%" stop-color="#99CBED"/><stop offset="100%" stop-color="#99CBED"/></linearGradient></defs><path fill="none" stroke="url(#o)" stroke-width="3" d="M741.34 508.543l-.01-.01v371.752h124.597"/><path fill="none" stroke="url(#o)" stroke-width="1.5" d="M761.34 799.795l-2.01-.01v8h2M765.34 799.795l1.99-.01v8h-2"/><path fill="none" stroke="#EEEEEE" stroke-width="8" d="M810.256 546.543l-.01-.01v176.61h141.758"/><defs><linearGradient id="p" x1="0%" x2="50%" y1="0%" y2="50%"><stop offset="0%" stop-color="#99CBED"/><stop offset="100%" stop-color="#99CBED"/></linearGradient></defs><path fill="none" stroke="url(#p)" stroke-width="3" d="M810.256 546.543l-.01-.01v176.61h141.758"/><path fill="none" stroke="url(#p)" stroke-width="1.5" d="M823.086 703.153l-2.01-.01v8h2M827.086 703.153l1.99-.01v8h-2"/><path fill="#FFFFFF" stroke="#3397DA" stroke-width="3" d="M589.701-89h404.435V89H589.701z"/><path fill="#3397da" stroke="#3397da" d="M590.7-48h404.435"/><path fill="none" stroke="#3397DA" stroke-width="3" d="M589.701-89h404.435V89H589.701z"/><text x="599.701" y="-71" style="font:700 16px 'Lucida Console',monospace" fill="#000000">DigitalFacilityRecord</text><text x="599.701" y="-55" style="font:300 14px 'Lucida Console',monospace" fill="#999">＜＜untp.VerifiableCredential＞＞</text><text x="599.701" y="-31" style="font:700 14px 'Lucida Console',monospace" fill="#666">* @context:</text><text x="696.417" y="-31" style="font:300 14px 'Lucida Console',monospace" fill="#02b57b">Text[]</text><text x="599.701" y="-17" style="font:700 14px 'Lucida Console',monospace" fill="#666">* id:</text><text x="645.844" y="-17" style="font:300 14px 'Lucida Console',monospace" fill="#C9A30B">URI</text><text x="599.701" y="-3" style="font:700 14px 'Lucida Console',monospace" fill="#666">* issuer:</text><text x="679.559" y="-3" style="font:300 14px 'Lucida Console',monospace" fill="#02b57b">CredentialIssuer</text><text x="599.701" y="11" style="font:700 14px 'Lucida Console',monospace" fill="#666">* validFrom:</text><text x="704.845" y="11" style="font:300 14px 'Lucida Console',monospace" fill="#02b57b">DateTime</text><text x="616.558" y="25" style="font:300 14px 'Lucida Console',monospace" fill="#666">validUntil:</text><text x="713.274" y="25" style="font:300 14px 'Lucida Console',monospace" fill="#02b57b">DateTime</text><text x="599.701" y="39" style="font:700 14px 'Lucida Console',monospace" fill="#666">* name:</text><text x="662.702" y="39" style="font:300 14px 'Lucida Console',monospace" fill="#547000">Text</text><text x="616.558" y="53" style="font:300 14px 'Lucida Console',monospace" fill="#666">credentialStatus:</text><text x="763.846" y="53" style="font:300 14px 'Lucida Console',monospace" fill="#02b57b">BitstringStatusListEntry</text><text x="616.558" y="67" style="font:300 14px 'Lucida Console',monospace" fill="#666">renderTemplate2024:</text><text x="780.704" y="67" style="font:300 14px 'Lucida Console',monospace" fill="#02b57b">RenderTemplate2024</text><text x="616.558" y="81" style="font:300 14px 'Lucida Console',monospace" fill="#000000">credentialSubject:</text><text x="772.275" y="81" style="font:300 14px 'Lucida Console',monospace" fill="#547000">untp.Facility</text><path fill="#FFFFFF" stroke="#99CBED" stroke-width="3" d="M598.325 127.192h348.576v232H598.325z"/><path fill="#99cbed" stroke="#99cbed" d="M599.325 152.192H947.9"/><path fill="none" stroke="#99CBED" stroke-width="3" d="M598.325 127.192h348.576v232H598.325z"/><text x="608.325" y="145.192" style="font:700 16px 'Lucida Console',monospace" fill="#000000">untp.Facility</text><text x="608.325" y="169.192" style="font:700 14px 'Lucida Console',monospace" fill="#000000">* id:</text><text x="654.468" y="169.192" style="font:300 14px 'Lucida Console',monospace" fill="#C9A30B">URI</text><text x="608.325" y="183.192" style="font:700 14px 'Lucida Console',monospace" fill="#000000">* name:</text><text x="671.326" y="183.192" style="font:300 14px 'Lucida Console',monospace" fill="#547000">Text</text><text x="625.182" y="197.192" style="font:300 14px 'Lucida Console',monospace" fill="#000000">description:</text><text x="730.326" y="197.192" style="font:300 14px 'Lucida Console',monospace" fill="#547000">Text</text><text x="625.182" y="211.192" style="font:300 14px 'Lucida Console',monospace" fill="#000000">registeredId:</text><text x="738.755" y="211.192" style="font:300 14px 'Lucida Console',monospace" fill="#02b57b">Text</text><text x="625.182" y="225.192" style="font:300 14px 'Lucida Console',monospace" fill="#000000">idScheme:</text><text x="705.04" y="225.192" style="font:300 14px 'Lucida Console',monospace" fill="#02b57b">IdentifierScheme</text><text x="608.325" y="239.192" style="font:700 14px 'Lucida Console',monospace" fill="#000000">* countryOfOperation:</text><text x="789.327" y="239.192" style="font:300 14px 'Lucida Console',monospace" fill="#02b57b">Country</text><text x="608.325" y="253.192" style="font:700 14px 'Lucida Console',monospace" fill="#000000">* processCategory:</text><text x="764.041" y="253.192" style="font:300 14px 'Lucida Console',monospace" fill="#02b57b">Classification[]</text><text x="625.182" y="267.192" style="font:300 14px 'Lucida Console',monospace" fill="#000000">relatedParty:</text><text x="738.755" y="267.192" style="font:300 14px 'Lucida Console',monospace" fill="#02b57b">PartyRole[]</text><text x="625.182" y="281.192" style="font:300 14px 'Lucida Console',monospace" fill="#000000">relatedDocument:</text><text x="764.041" y="281.192" style="font:300 14px 'Lucida Console',monospace" fill="#02b57b">Link[]</text><text x="625.182" y="295.192" style="font:300 14px 'Lucida Console',monospace" fill="#000000">facilityAlsoKnownAs:</text><text x="797.756" y="295.192" style="font:300 14px 'Lucida Console',monospace" fill="#02b57b">Facility[]</text><text x="608.325" y="309.192" style="font:700 14px 'Lucida Console',monospace" fill="#000000">* locationInformation:</text><text x="797.756" y="309.192" style="font:300 14px 'Lucida Console',monospace" fill="#02b57b">Location</text><text x="608.325" y="323.192" style="font:700 14px 'Lucida Console',monospace" fill="#000000">* address:</text><text x="696.612" y="323.192" style="font:300 14px 'Lucida Console',monospace" fill="#02b57b">Address</text><text x="625.182" y="337.192" style="font:300 14px 'Lucida Console',monospace" fill="#000000">materialUsage:</text><text x="747.184" y="337.192" style="font:300 14px 'Lucida Console',monospace" fill="#02b57b">MaterialUsage</text><text x="625.182" y="351.192" style="font:300 14px 'Lucida Console',monospace" fill="#000000">performanceClaim:</text><text x="772.47" y="351.192" style="font:300 14px 'Lucida Console',monospace" fill="#02b57b">Claim[]</text><path fill="#FFFFFF" stroke="#97E5B8" stroke-width="3" d="M1047.354 31.81h370.72v106h-370.72z"/><path fill="#97e5b8" stroke="#97e5b8" d="M1048.354 56.81h370.72"/><path fill="none" stroke="#97E5B8" stroke-width="3" d="M1047.354 31.81h370.72v106h-370.72z"/><text x="1057.354" y="49.81" style="font:700 16px 'Lucida Console',monospace" fill="#000000">untp.Address</text><text x="1057.354" y="73.81" style="font:700 14px 'Lucida Console',monospace" fill="#000000">* streetAddress:</text><text x="1196.213" y="73.81" style="font:300 14px 'Lucida Console',monospace" fill="#547000">streetAddress(Text)</text><text x="1057.354" y="87.81" style="font:700 14px 'Lucida Console',monospace" fill="#000000">* postalCode:</text><text x="1170.927" y="87.81" style="font:300 14px 'Lucida Console',monospace" fill="#547000">postalCode(Text)</text><text x="1057.354" y="101.81" style="font:700 14px 'Lucida Console',monospace" fill="#000000">* addressLocality:</text><text x="1213.071" y="101.81" style="font:300 14px 'Lucida Console',monospace" fill="#547000">addressLocality(Text)</text><text x="1057.354" y="115.81" style="font:700 14px 'Lucida Console',monospace" fill="#000000">* addressRegion:</text><text x="1196.213" y="115.81" style="font:300 14px 'Lucida Console',monospace" fill="#547000">addressRegion(Text)</text><text x="1057.354" y="129.81" style="font:700 14px 'Lucida Console',monospace" fill="#000000">* addressCountry:</text><text x="1204.642" y="129.81" style="font:300 14px 'Lucida Console',monospace" fill="#02b57b">Country</text><path fill="#FFFFFF" stroke="#97E5B8" stroke-width="3" d="M322.714 191.429h223.432v64H322.714z"/><path fill="#97e5b8" stroke="#97e5b8" d="M323.714 216.429h223.432"/><path fill="none" stroke="#97E5B8" stroke-width="3" d="M322.714 191.429h223.432v64H322.714z"/><text x="332.714" y="209.429" style="font:700 16px 'Lucida Console',monospace" fill="#000000">untp.PartyRole</text><text x="332.714" y="233.429" style="font:700 14px 'Lucida Console',monospace" fill="#000000">* role:</text><text x="395.715" y="233.429" style="font:300 14px 'Lucida Console',monospace" fill="#530abb">Code(PartyRole)</text><text x="332.714" y="247.429" style="font:700 14px 'Lucida Console',monospace" fill="#000000">* party:</text><text x="404.144" y="247.429" style="font:300 14px 'Lucida Console',monospace" fill="#02b57b">Party</text><path fill="#FFFFFF" stroke="#99CBED" stroke-width="3" d="M63.571 291.571h333.005v176H63.571z"/><path fill="#99cbed" stroke="#99cbed" d="M64.571 316.571h333.005"/><path fill="none" stroke="#99CBED" stroke-width="3" d="M63.571 291.571h333.005v176H63.571z"/><text x="73.571" y="309.571" style="font:700 16px 'Lucida Console',monospace" fill="#000000">untp.Party</text><text x="73.571" y="333.571" style="font:700 14px 'Lucida Console',monospace" fill="#000000">* id:</text><text x="119.715" y="333.571" style="font:300 14px 'Lucida Console',monospace" fill="#C9A30B">URI</text><text x="73.571" y="347.571" style="font:700 14px 'Lucida Console',monospace" fill="#000000">* name:</text><text x="136.572" y="347.571" style="font:300 14px 'Lucida Console',monospace" fill="#547000">Text</text><text x="90.429" y="361.571" style="font:300 14px 'Lucida Console',monospace" fill="#000000">description:</text><text x="195.573" y="361.571" style="font:300 14px 'Lucida Console',monospace" fill="#547000">Text</text><text x="90.429" y="375.571" style="font:300 14px 'Lucida Console',monospace" fill="#000000">registeredId:</text><text x="204.002" y="375.571" style="font:300 14px 'Lucida Console',monospace" fill="#02b57b">Text</text><text x="90.429" y="389.571" style="font:300 14px 'Lucida Console',monospace" fill="#000000">idScheme:</text><text x="170.287" y="389.571" style="font:300 14px 'Lucida Console',monospace" fill="#02b57b">IdentifierScheme</text><text x="90.429" y="403.571" style="font:300 14px 'Lucida Console',monospace" fill="#000000">registrationCountry:</text><text x="263.003" y="403.571" style="font:300 14px 'Lucida Console',monospace" fill="#02b57b">Country</text><text x="90.429" y="417.571" style="font:300 14px 'Lucida Console',monospace" fill="#000000">partyAddress:</text><text x="204.002" y="417.571" style="font:300 14px 'Lucida Console',monospace" fill="#02b57b">Address</text><text x="90.429" y="431.571" style="font:300 14px 'Lucida Console',monospace" fill="#000000">organisationWebsite:</text><text x="263.003" y="431.571" style="font:300 14px 'Lucida Console',monospace" fill="#02b57b">URI</text><text x="90.429" y="445.571" style="font:300 14px 'Lucida Console',monospace" fill="#000000">industryCategory:</text><text x="237.717" y="445.571" style="font:300 14px 'Lucida Console',monospace" fill="#02b57b">Classification[]</text><text x="90.429" y="459.571" style="font:300 14px 'Lucida Console',monospace" fill="#000000">partyAlsoKnownAs:</text><text x="237.717" y="459.571" style="font:300 14px 'Lucida Console',monospace" fill="#02b57b">Party[]</text><path fill="#FFFFFF" stroke="#97E5B8" stroke-width="3" d="M260.929 0h236.289v78H260.929z"/><path fill="#97e5b8" stroke="#97e5b8" d="M261.929 25h236.289"/><path fill="none" stroke="#97E5B8" stroke-width="3" d="M260.929 0h236.289v78H260.929z"/><text x="270.929" y="18" style="font:700 16px 'Lucida Console',monospace" fill="#000000">untp.Location</text><text x="270.929" y="42" style="font:300 14px 'Lucida Console',monospace" fill="#000000">plusCode:</text><text x="350.787" y="42" style="font:300 14px 'Lucida Console',monospace" fill="#02b57b">URI</text><text x="270.929" y="56" style="font:300 14px 'Lucida Console',monospace" fill="#000000">geoLocation:</text><text x="376.073" y="56" style="font:300 14px 'Lucida Console',monospace" fill="#02b57b">Coordinate</text><text x="270.929" y="70" style="font:300 14px 'Lucida Console',monospace" fill="#000000">geoBoundary:</text><text x="376.073" y="70" style="font:300 14px 'Lucida Console',monospace" fill="#02b57b">Coordinate[]</text><path fill="#FFFFFF" stroke="#97E5B8" stroke-width="3" d="M72.857 112.857h204.857v64H72.857z"/><path fill="#97e5b8" stroke="#97e5b8" d="M73.857 137.857h204.858"/><path fill="none" stroke="#97E5B8" stroke-width="3" d="M72.857 112.857h204.857v64H72.857z"/><text x="82.857" y="130.857" style="font:700 16px 'Lucida Console',monospace" fill="#000000">untp.Coordinate</text><text x="82.857" y="154.857" style="font:700 14px 'Lucida Console',monospace" fill="#000000">* latitude:</text><text x="179.573" y="154.857" style="font:300 14px 'Lucida Console',monospace" fill="#02b57b">Numeric</text><text x="82.857" y="168.857" style="font:700 14px 'Lucida Console',monospace" fill="#000000">* longitude:</text><text x="188.002" y="168.857" style="font:300 14px 'Lucida Console',monospace" fill="#02b57b">Numeric</text><path fill="#FFFFFF" stroke="#97E5B8" stroke-width="3" d="M1024.142 225.714h278.433v64h-278.433z"/><path fill="#97e5b8" stroke="#97e5b8" d="M1025.142 250.714h278.433"/><path fill="none" stroke="#97E5B8" stroke-width="3" d="M1024.142 225.714h278.433v64h-278.433z"/><text x="1034.142" y="243.714" style="font:700 16px 'Lucida Console',monospace" fill="#000000">untp.MaterialUsage</text><text x="1051" y="267.714" style="font:300 14px 'Lucida Console',monospace" fill="#000000">applicablePeriod:</text><text x="1198.288" y="267.714" style="font:300 14px 'Lucida Console',monospace" fill="#02b57b">Period</text><text x="1034.142" y="281.714" style="font:700 14px 'Lucida Console',monospace" fill="#000000">* materialConsumed:</text><text x="1198.288" y="281.714" style="font:300 14px 'Lucida Console',monospace" fill="#02b57b">Material[]</text><path fill="#FFFFFF" stroke="#97E5B8" stroke-width="3" d="M1023.567 326.533h303.719v162h-303.719z"/><path fill="#97e5b8" stroke="#97e5b8" d="M1024.567 351.533h303.718"/><path fill="none" stroke="#97E5B8" stroke-width="3" d="M1023.567 326.533h303.719v162h-303.719z"/><text x="1033.567" y="344.533" style="font:700 16px 'Lucida Console',monospace" fill="#000000">untp.Material</text><text x="1033.567" y="368.533" style="font:700 14px 'Lucida Console',monospace" fill="#000000">* name:</text><text x="1096.568" y="368.533" style="font:300 14px 'Lucida Console',monospace" fill="#02b57b">Text</text><text x="1033.567" y="382.533" style="font:700 14px 'Lucida Console',monospace" fill="#000000">* originCountry:</text><text x="1172.426" y="382.533" style="font:300 14px 'Lucida Console',monospace" fill="#02b57b">Country</text><text x="1033.567" y="396.533" style="font:700 14px 'Lucida Console',monospace" fill="#000000">* materialType:</text><text x="1163.997" y="396.533" style="font:300 14px 'Lucida Console',monospace" fill="#02b57b">Classification</text><text x="1033.567" y="410.533" style="font:700 14px 'Lucida Console',monospace" fill="#000000">* massFraction:</text><text x="1163.997" y="410.533" style="font:300 14px 'Lucida Console',monospace" fill="#02b57b">Numeric</text><text x="1050.424" y="424.533" style="font:300 14px 'Lucida Console',monospace" fill="#000000">mass:</text><text x="1096.568" y="424.533" style="font:300 14px 'Lucida Console',monospace" fill="#02b57b">Measure</text><text x="1050.424" y="438.533" style="font:300 14px 'Lucida Console',monospace" fill="#000000">recycledMassFraction:</text><text x="1231.427" y="438.533" style="font:300 14px 'Lucida Console',monospace" fill="#02b57b">Numeric</text><text x="1050.424" y="452.533" style="font:300 14px 'Lucida Console',monospace" fill="#000000">hazardous:</text><text x="1138.711" y="452.533" style="font:300 14px 'Lucida Console',monospace" fill="#02b57b">Indicator</text><text x="1050.424" y="466.533" style="font:300 14px 'Lucida Console',monospace" fill="#000000">symbol:</text><text x="1113.425" y="466.533" style="font:300 14px 'Lucida Console',monospace" fill="#02b57b">Image</text><text x="1050.424" y="480.533" style="font:300 14px 'Lucida Console',monospace" fill="#000000">materialSafetyInformation:</text><text x="1273.571" y="480.533" style="font:300 14px 'Lucida Console',monospace" fill="#02b57b">Link</text><path fill="#FFFFFF" stroke="#99CBED" stroke-width="3" d="M603.5 432.533h344.576v190H603.5z"/><path fill="#99cbed" stroke="#99cbed" d="M604.5 457.533h344.576"/><path fill="none" stroke="#99CBED" stroke-width="3" d="M603.5 432.533h344.576v190H603.5z"/><text x="613.5" y="450.533" style="font:700 16px 'Lucida Console',monospace" fill="#000000">untp.Claim</text><text x="613.5" y="474.533" style="font:700 14px 'Lucida Console',monospace" fill="#000000">* id:</text><text x="659.644" y="474.533" style="font:300 14px 'Lucida Console',monospace" fill="#C9A30B">URI</text><text x="613.5" y="488.533" style="font:700 14px 'Lucida Console',monospace" fill="#000000">* name:</text><text x="676.501" y="488.533" style="font:300 14px 'Lucida Console',monospace" fill="#547000">Text</text><text x="630.358" y="502.533" style="font:300 14px 'Lucida Console',monospace" fill="#000000">description:</text><text x="735.502" y="502.533" style="font:300 14px 'Lucida Console',monospace" fill="#547000">Text</text><text x="613.5" y="516.533" style="font:700 14px 'Lucida Console',monospace" fill="#000000">* referenceCriteria:</text><text x="786.074" y="516.533" style="font:300 14px 'Lucida Console',monospace" fill="#02b57b">Criterion[]</text><text x="630.358" y="530.533" style="font:300 14px 'Lucida Console',monospace" fill="#000000">referenceRegulation:</text><text x="802.932" y="530.533" style="font:300 14px 'Lucida Console',monospace" fill="#02b57b">Regulation[]</text><text x="630.358" y="544.533" style="font:300 14px 'Lucida Console',monospace" fill="#000000">referenceStandard:</text><text x="786.074" y="544.533" style="font:300 14px 'Lucida Console',monospace" fill="#02b57b">Standard[]</text><text x="613.5" y="558.533" style="font:700 14px 'Lucida Console',monospace" fill="#000000">* claimDate:</text><text x="718.645" y="558.533" style="font:300 14px 'Lucida Console',monospace" fill="#02b57b">Date</text><text x="630.358" y="572.533" style="font:300 14px 'Lucida Console',monospace" fill="#000000">applicablePeriod:</text><text x="777.646" y="572.533" style="font:300 14px 'Lucida Console',monospace" fill="#02b57b">Period</text><text x="613.5" y="586.533" style="font:700 14px 'Lucida Console',monospace" fill="#000000">* claimedPerformance:</text><text x="794.503" y="586.533" style="font:300 14px 'Lucida Console',monospace" fill="#02b57b">Performance[]</text><text x="630.358" y="600.533" style="font:300 14px 'Lucida Console',monospace" fill="#000000">evidence:</text><text x="710.216" y="600.533" style="font:300 14px 'Lucida Console',monospace" fill="#02b57b">Link[]</text><text x="613.5" y="614.533" style="font:700 14px 'Lucida Console',monospace" fill="#000000">* conformityTopic:</text><text x="769.217" y="614.533" style="font:300 14px 'Lucida Console',monospace" fill="#02b57b">ConformityTopic</text><path fill="#FFFFFF" stroke="#97E5B8" stroke-width="3" d="M296.714 672.571H557.86v78H296.714z"/><path fill="#97e5b8" stroke="#97e5b8" d="M297.714 697.571h261.147"/><path fill="none" stroke="#97E5B8" stroke-width="3" d="M296.714 672.571H557.86v78H296.714z"/><text x="306.714" y="690.571" style="font:700 16px 'Lucida Console',monospace" fill="#000000">untp.Performance</text><text x="306.714" y="714.571" style="font:700 14px 'Lucida Console',monospace" fill="#000000">* metric:</text><text x="386.573" y="714.571" style="font:300 14px 'Lucida Console',monospace" fill="#02b57b">PerformanceMetric</text><text x="323.572" y="728.571" style="font:300 14px 'Lucida Console',monospace" fill="#000000">measure:</text><text x="395.002" y="728.571" style="font:300 14px 'Lucida Console',monospace" fill="#02b57b">Measure</text><text x="323.572" y="742.571" style="font:300 14px 'Lucida Console',monospace" fill="#000000">score:</text><text x="378.144" y="742.571" style="font:300 14px 'Lucida Console',monospace" fill="#02b57b">Score</text><path fill="#FFFFFF" stroke="#99CBED" stroke-width="3" d="M1094.78 601.766h320.147v162H1094.78z"/><path fill="#99cbed" stroke="#99cbed" d="M1095.78 626.766h320.148"/><path fill="none" stroke="#99CBED" stroke-width="3" d="M1094.78 601.766h320.147v162H1094.78z"/><text x="1104.78" y="619.766" style="font:700 16px 'Lucida Console',monospace" fill="#000000">untp.Criterion</text><text x="1104.78" y="643.766" style="font:700 14px 'Lucida Console',monospace" fill="#000000">* id:</text><text x="1150.924" y="643.766" style="font:300 14px 'Lucida Console',monospace" fill="#C9A30B">URI</text><text x="1104.78" y="657.766" style="font:700 14px 'Lucida Console',monospace" fill="#000000">* name:</text><text x="1167.781" y="657.766" style="font:300 14px 'Lucida Console',monospace" fill="#547000">Text</text><text x="1121.638" y="671.766" style="font:300 14px 'Lucida Console',monospace" fill="#000000">description:</text><text x="1226.782" y="671.766" style="font:300 14px 'Lucida Console',monospace" fill="#547000">Text</text><text x="1104.78" y="685.766" style="font:700 14px 'Lucida Console',monospace" fill="#000000">* version:</text><text x="1193.067" y="685.766" style="font:300 14px 'Lucida Console',monospace" fill="#02b57b">Text</text><text x="1104.78" y="699.766" style="font:700 14px 'Lucida Console',monospace" fill="#000000">* status:</text><text x="1184.638" y="699.766" style="font:300 14px 'Lucida Console',monospace" fill="#530abb">Code(CriterionStatus)</text><text x="1121.638" y="713.766" style="font:300 14px 'Lucida Console',monospace" fill="#000000">documentation:</text><text x="1243.639" y="713.766" style="font:300 14px 'Lucida Console',monospace" fill="#02b57b">URI</text><text x="1104.78" y="727.766" style="font:700 14px 'Lucida Console',monospace" fill="#000000">* conformityTopic:</text><text x="1260.497" y="727.766" style="font:300 14px 'Lucida Console',monospace" fill="#02b57b">ConformityTopic</text><text x="1104.78" y="741.766" style="font:700 14px 'Lucida Console',monospace" fill="#000000">* passThreshold:</text><text x="1243.639" y="741.766" style="font:300 14px 'Lucida Console',monospace" fill="#02b57b">PassThreshold[]</text><text x="1121.638" y="755.766" style="font:300 14px 'Lucida Console',monospace" fill="#000000">tag:</text><text x="1159.352" y="755.766" style="font:300 14px 'Lucida Console',monospace" fill="#02b57b">Text[]</text><path fill="#FFFFFF" stroke="#99CBED" stroke-width="3" d="M50 550h329.005v92H50z"/><path fill="#99cbed" stroke="#99cbed" d="M51 575h329.005"/><path fill="none" stroke="#99CBED" stroke-width="3" d="M50 550h329.005v92H50z"/><text x="60" y="568" style="font:700 16px 'Lucida Console',monospace" fill="#000000">untp.PerformanceMetric</text><text x="60" y="592" style="font:700 14px 'Lucida Console',monospace" fill="#000000">* id:</text><text x="106.144" y="592" style="font:300 14px 'Lucida Console',monospace" fill="#C9A30B">URI</text><text x="60" y="606" style="font:700 14px 'Lucida Console',monospace" fill="#000000">* name:</text><text x="123.001" y="606" style="font:300 14px 'Lucida Console',monospace" fill="#547000">Text</text><text x="76.857" y="620" style="font:300 14px 'Lucida Console',monospace" fill="#000000">definition:</text><text x="173.573" y="620" style="font:300 14px 'Lucida Console',monospace" fill="#02b57b">Text</text><text x="60" y="634" style="font:700 14px 'Lucida Console',monospace" fill="#000000">* allowedUnit:</text><text x="182.002" y="634" style="font:300 14px 'Lucida Console',monospace" fill="#530abb">Code(UnitOfMeasure)[]</text><path fill="#FFFFFF" stroke="#97E5B8" stroke-width="3" d="M181.285 815.857h253.146v92H181.285z"/><path fill="#97e5b8" stroke="#97e5b8" d="M182.285 840.857h253.147"/><path fill="none" stroke="#97E5B8" stroke-width="3" d="M181.285 815.857h253.146v92H181.285z"/><text x="191.285" y="833.857" style="font:700 16px 'Lucida Console',monospace" fill="#000000">untp.Measure</text><text x="191.285" y="857.857" style="font:700 14px 'Lucida Console',monospace" fill="#000000">* value:</text><text x="262.715" y="857.857" style="font:300 14px 'Lucida Console',monospace" fill="#02b57b">Numeric</text><text x="208.143" y="871.857" style="font:300 14px 'Lucida Console',monospace" fill="#000000">upperTolerance:</text><text x="338.573" y="871.857" style="font:300 14px 'Lucida Console',monospace" fill="#02b57b">Numeric</text><text x="208.143" y="885.857" style="font:300 14px 'Lucida Console',monospace" fill="#000000">lowerTolerance:</text><text x="338.573" y="885.857" style="font:300 14px 'Lucida Console',monospace" fill="#02b57b">Numeric</text><text x="191.285" y="899.857" style="font:700 14px 'Lucida Console',monospace" fill="#000000">* unit:</text><text x="254.286" y="899.857" style="font:300 14px 'Lucida Console',monospace" fill="#530abb">Code(UnitOfMeasure)</text><path fill="#FFFFFF" stroke="#97E5B8" stroke-width="3" d="M462.714 824.286h208.857v78H462.714z"/><path fill="#97e5b8" stroke="#97e5b8" d="M463.714 849.286H672.57"/><path fill="none" stroke="#97E5B8" stroke-width="3" d="M462.714 824.286h208.857v78H462.714z"/><text x="472.714" y="842.286" style="font:700 16px 'Lucida Console',monospace" fill="#000000">untp.Score</text><text x="472.714" y="866.286" style="font:700 14px 'Lucida Console',monospace" fill="#000000">* code:</text><text x="535.715" y="866.286" style="font:300 14px 'Lucida Console',monospace" fill="#02b57b">Text</text><text x="489.571" y="880.286" style="font:300 14px 'Lucida Console',monospace" fill="#000000">rank:</text><text x="535.715" y="880.286" style="font:300 14px 'Lucida Console',monospace" fill="#02b57b">Integer</text><text x="489.571" y="894.286" style="font:300 14px 'Lucida Console',monospace" fill="#000000">definition:</text><text x="586.287" y="894.286" style="font:300 14px 'Lucida Console',monospace" fill="#02b57b">Text</text><path fill="#FFFFFF" stroke="#99CBED" stroke-width="3" d="M722.711 820.285h286.433v120H722.711z"/><path fill="#99cbed" stroke="#99cbed" d="M723.711 845.285h286.433"/><path fill="none" stroke="#99CBED" stroke-width="3" d="M722.711 820.285h286.433v120H722.711z"/><text x="732.711" y="838.285" style="font:700 16px 'Lucida Console',monospace" fill="#000000">untp.Regulation</text><text x="732.711" y="862.285" style="font:700 14px 'Lucida Console',monospace" fill="#000000">* id:</text><text x="778.855" y="862.285" style="font:300 14px 'Lucida Console',monospace" fill="#C9A30B">URI</text><text x="732.711" y="876.285" style="font:700 14px 'Lucida Console',monospace" fill="#000000">* name:</text><text x="795.712" y="876.285" style="font:300 14px 'Lucida Console',monospace" fill="#547000">Text</text><text x="749.569" y="890.285" style="font:300 14px 'Lucida Console',monospace" fill="#000000">description:</text><text x="854.713" y="890.285" style="font:300 14px 'Lucida Console',monospace" fill="#547000">Text</text><text x="732.711" y="904.285" style="font:700 14px 'Lucida Console',monospace" fill="#000000">* jurisdictionCountry:</text><text x="922.143" y="904.285" style="font:300 14px 'Lucida Console',monospace" fill="#02b57b">Country</text><text x="732.711" y="918.285" style="font:700 14px 'Lucida Console',monospace" fill="#000000">* administeredBy:</text><text x="879.999" y="918.285" style="font:300 14px 'Lucida Console',monospace" fill="#02b57b">Party</text><text x="749.569" y="932.285" style="font:300 14px 'Lucida Console',monospace" fill="#000000">effectiveDate:</text><text x="871.57" y="932.285" style="font:300 14px 'Lucida Console',monospace" fill="#02b57b">Date</text><path fill="#FFFFFF" stroke="#99CBED" stroke-width="3" d="M843.576 670.143h216.857v106H843.576z"/><path fill="#99cbed" stroke="#99cbed" d="M844.576 695.143h216.857"/><path fill="none" stroke="#99CBED" stroke-width="3" d="M843.576 670.143h216.857v106H843.576z"/><text x="853.576" y="688.143" style="font:700 16px 'Lucida Console',monospace" fill="#000000">untp.Standard</text><text x="853.576" y="712.143" style="font:700 14px 'Lucida Console',monospace" fill="#000000">* id:</text><text x="899.719" y="712.143" style="font:300 14px 'Lucida Console',monospace" fill="#C9A30B">URI</text><text x="853.576" y="726.143" style="font:700 14px 'Lucida Console',monospace" fill="#000000">* name:</text><text x="916.577" y="726.143" style="font:300 14px 'Lucida Console',monospace" fill="#547000">Text</text><text x="870.433" y="740.143" style="font:300 14px 'Lucida Console',monospace" fill="#000000">description:</text><text x="975.578" y="740.143" style="font:300 14px 'Lucida Console',monospace" fill="#547000">Text</text><text x="853.576" y="754.143" style="font:700 14px 'Lucida Console',monospace" fill="#000000">* issuingParty:</text><text x="984.006" y="754.143" style="font:300 14px 'Lucida Console',monospace" fill="#02b57b">Party</text><text x="870.433" y="768.143" style="font:300 14px 'Lucida Console',monospace" fill="#000000">issueDate:</text><text x="958.72" y="768.143" style="font:300 14px 'Lucida Console',monospace" fill="#02b57b">Date</text></svg>