<svg xmlns="http://www.w3.org/2000/svg" viewBox="-262.29 -170 1757.223 1243.571"><rect width="1000%" height="1000%" x="-500%" y="-500%" fill="#EEEEEE"/><path fill="none" stroke="#EEEEEE" stroke-width="8" d="M602.227-60.99l-.01-.01v307.714h-41.005"/><defs><linearGradient id="a" x1="0%" x2="50%" y1="0%" y2="50%"><stop offset="0%" stop-color="#3397DA"/><stop offset="100%" stop-color="#99CBED"/></linearGradient></defs><path fill="none" stroke="url(#a)" stroke-width="3" d="M602.227-60.99l-.01-.01v307.714h-41.005"/><path fill="none" stroke="#EEEEEE" stroke-width="8" d="M671.224 205.474l-.01-.01H928.5v212.25"/><defs><linearGradient id="b" x1="0%" x2="50%" y1="0%" y2="50%"><stop offset="0%" stop-color="#99CBED"/><stop offset="100%" stop-color="#97E5B8"/></linearGradient></defs><path fill="none" stroke="url(#b)" stroke-width="3" d="M671.224 205.474l-.01-.01H928.5v212.25"/><path fill="none" stroke="url(#b)" stroke-width="1.5" d="M948.51 365.224l-2.01-.01v8h2M952.51 365.224l1.99-.01v8h-2"/><path fill="none" stroke="#EEEEEE" stroke-width="8" d="M928.51 417.724l-.01-.01V619.43h39.431"/><defs><linearGradient id="c" x1="0%" x2="50%" y1="0%" y2="50%"><stop offset="0%" stop-color="#97E5B8"/><stop offset="100%" stop-color="#99CBED"/></linearGradient></defs><path fill="none" stroke="url(#c)" stroke-width="3" d="M928.51 417.724l-.01-.01V619.43h39.431"/><path fill="none" stroke="url(#c)" stroke-width="1.5" d="M948.51 510.939l-2.01-.01v8h2M952.51 510.939l1.99-.01v8h-2"/><path fill="none" stroke="#EEEEEE" stroke-width="8" d="M726.225 164.224l-.01-.01h447.502V209"/><defs><linearGradient id="d" x1="0%" x2="50%" y1="0%" y2="50%"><stop offset="0%" stop-color="#99CBED"/><stop offset="100%" stop-color="#99CBED"/></linearGradient></defs><path fill="none" stroke="url(#d)" stroke-width="3" d="M726.225 164.224l-.01-.01h447.502V209"/><path fill="none" stroke="#EEEEEE" stroke-width="8" d="M1173.727 209.01l-.01-.01v218.286h95.856"/><defs><linearGradient id="e" x1="0%" x2="50%" y1="0%" y2="50%"><stop offset="0%" stop-color="#99CBED"/><stop offset="100%" stop-color="#97E5B8"/></linearGradient></defs><path fill="none" stroke="url(#e)" stroke-width="3" d="M1173.727 209.01l-.01-.01v218.286h95.856"/><path fill="none" stroke="#EEEEEE" stroke-width="8" d="M451.22 164.224l-.01-.01H12.215V316"/><defs><linearGradient id="f" x1="0%" x2="50%" y1="0%" y2="50%"><stop offset="0%" stop-color="#99CBED"/><stop offset="100%" stop-color="#97E5B8"/></linearGradient></defs><path fill="none" stroke="url(#f)" stroke-width="3" d="M451.22 164.224l-.01-.01H12.215V316"/><path fill="none" stroke="#EEEEEE" stroke-width="8" d="M561.222 287.974l-.01-.01v213.75H406.573"/><defs><linearGradient id="g" x1="0%" x2="50%" y1="0%" y2="50%"><stop offset="0%" stop-color="#99CBED"/><stop offset="100%" stop-color="#97E5B8"/></linearGradient></defs><path fill="none" stroke="url(#g)" stroke-width="3" d="M561.222 287.974l-.01-.01v213.75H406.573"/><path fill="none" stroke="url(#g)" stroke-width="1.5" d="M553.656 481.724l-2.01-.01v8h2M557.656 481.724l1.99-.01v8h-2"/><path fill="none" stroke="#EEEEEE" stroke-width="8" d="M-29.967 298.343l-.01-.01V31.143H-50.62"/><defs><linearGradient id="h" x1="100%" x2="50%" y1="100%" y2="50%"><stop offset="0%" stop-color="#97E5B8"/><stop offset="100%" stop-color="#97E5B8"/></linearGradient></defs><path fill="none" stroke="url(#h)" stroke-width="3" d="M-29.967 298.343l-.01-.01V31.143H-50.62"/><path fill="none" stroke="#EEEEEE" stroke-width="8" d="M54.415 333.677l-.01-.01v125.952h44.971"/><defs><linearGradient id="i" x1="0%" x2="50%" y1="0%" y2="50%"><stop offset="0%" stop-color="#97E5B8"/><stop offset="100%" stop-color="#97E5B8"/></linearGradient></defs><path fill="none" stroke="url(#i)" stroke-width="3" d="M54.415 333.677l-.01-.01v125.952h44.971"/><path fill="none" stroke="#EEEEEE" stroke-width="8" d="M506.222 205.474l-.01-.01H166.043v289.488"/><defs><linearGradient id="j" x1="0%" x2="50%" y1="0%" y2="50%"><stop offset="0%" stop-color="#99CBED"/><stop offset="100%" stop-color="#97E5B8"/></linearGradient></defs><path fill="none" stroke="url(#j)" stroke-width="3" d="M506.222 205.474l-.01-.01H166.043v289.488"/><path fill="none" stroke="#EEEEEE" stroke-width="8" d="M396.22 122.974l-.01-.01H50.62V85.143"/><defs><linearGradient id="k" x1="100%" x2="50%" y1="100%" y2="50%"><stop offset="0%" stop-color="#99CBED"/><stop offset="100%" stop-color="#97E5B8"/></linearGradient></defs><path fill="none" stroke="url(#k)" stroke-width="3" d="M396.22 122.974l-.01-.01H50.62V85.143"/><path fill="none" stroke="url(#k)" stroke-width="1.5" d="M172.37 102.974l-2.01-.01v8h2M176.37 102.974l1.99-.01v8h-2"/><path fill="none" stroke="#EEEEEE" stroke-width="8" d="M616.223 246.724l-.01-.01V674h-53.857"/><defs><linearGradient id="l" x1="0%" x2="50%" y1="0%" y2="50%"><stop offset="0%" stop-color="#99CBED"/><stop offset="100%" stop-color="#99CBED"/></linearGradient></defs><path fill="none" stroke="url(#l)" stroke-width="3" d="M616.223 246.724l-.01-.01V674h-53.857"/><path fill="none" stroke="url(#l)" stroke-width="1.5" d="M636.223 558.51l-2.01-.01v8h2M640.223 558.51l1.99-.01v8h-2"/><path fill="none" stroke="#EEEEEE" stroke-width="8" d="M665.738 655.01l-.01-.01v191h-74.085"/><defs><linearGradient id="m" x1="0%" x2="50%" y1="0%" y2="50%"><stop offset="0%" stop-color="#99CBED"/><stop offset="100%" stop-color="#97E5B8"/></linearGradient></defs><path fill="none" stroke="url(#m)" stroke-width="3" d="M665.738 655.01l-.01-.01v191h-74.085"/><path fill="none" stroke="url(#m)" stroke-width="1.5" d="M685.738 786.51l-2.01-.01v8h2M689.738 786.51l1.99-.01v8h-2"/><path fill="none" stroke="#EEEEEE" stroke-width="8" d="M458.993 617.01l-.01-.01H-82.216v26.857"/><defs><linearGradient id="n" x1="100%" x2="50%" y1="100%" y2="50%"><stop offset="0%" stop-color="#99CBED"/><stop offset="100%" stop-color="#99CBED"/></linearGradient></defs><path fill="none" stroke="url(#n)" stroke-width="3" d="M458.993 617.01l-.01-.01H-82.216v26.857"/><path fill="none" stroke="url(#n)" stroke-width="1.5" d="M98.368 597.01l-2.01-.01v8h2M102.368 597.01l1.99-.01v8h-2"/><path fill="none" stroke="#EEEEEE" stroke-width="8" d="M656.94 846.01l-.01-.01h323.287v-7.143"/><defs><linearGradient id="o" x1="0%" x2="50%" y1="0%" y2="50%"><stop offset="0%" stop-color="#97E5B8"/><stop offset="100%" stop-color="#99CBED"/></linearGradient></defs><path fill="none" stroke="url(#o)" stroke-width="3" d="M656.94 846.01l-.01-.01h323.287v-7.143"/><path fill="none" stroke="url(#o)" stroke-width="1.5" d="M795.224 826.01l-2.01-.01v8h2M799.224 826.01l1.99-.01v8h-2"/><path fill="none" stroke="#EEEEEE" stroke-width="8" d="M526.366 826.51l-.01-.01v161.071h-94.142"/><defs><linearGradient id="p" x1="0%" x2="50%" y1="0%" y2="50%"><stop offset="0%" stop-color="#97E5B8"/><stop offset="100%" stop-color="#2ECB70"/></linearGradient></defs><path fill="none" stroke="url(#p)" stroke-width="3" d="M526.366 826.51l-.01-.01v161.071h-94.142"/><path fill="none" stroke="url(#p)" stroke-width="1.5" d="M546.366 921.081l-2.01-.01v8h2M550.366 921.081l1.99-.01v8h-2"/><path fill="none" stroke="#EEEEEE" stroke-width="8" d="M591.653 865.51l-.01-.01h164.214V989"/><defs><linearGradient id="q" x1="0%" x2="50%" y1="0%" y2="50%"><stop offset="0%" stop-color="#97E5B8"/><stop offset="100%" stop-color="#2ECB70"/></linearGradient></defs><path fill="none" stroke="url(#q)" stroke-width="3" d="M591.653 865.51l-.01-.01h164.214V989"/><path fill="none" stroke="url(#q)" stroke-width="1.5" d="M775.867 929.51l-2.01-.01v8h2M779.867 929.51l1.99-.01v8h-2"/><path fill="none" stroke="#EEEEEE" stroke-width="8" d="M596.823 693.01l-.01-.01H276.501v165"/><defs><linearGradient id="r" x1="0%" x2="50%" y1="0%" y2="50%"><stop offset="0%" stop-color="#99CBED"/><stop offset="100%" stop-color="#99CBED"/></linearGradient></defs><path fill="none" stroke="url(#r)" stroke-width="3" d="M596.823 693.01l-.01-.01H276.501v165"/><path fill="none" stroke="url(#r)" stroke-width="1.5" d="M296.51 784.51l-2.01-.01v8h2M300.51 784.51l1.99-.01v8h-2"/><path fill="none" stroke="#EEEEEE" stroke-width="8" d="M527.908 655.01l-.01-.01H107.502v346.429"/><defs><linearGradient id="s" x1="0%" x2="50%" y1="0%" y2="50%"><stop offset="0%" stop-color="#99CBED"/><stop offset="100%" stop-color="#3397DA"/></linearGradient></defs><path fill="none" stroke="url(#s)" stroke-width="3" d="M527.908 655.01l-.01-.01H107.502v346.429"/><path fill="none" stroke="url(#s)" stroke-width="1.5" d="M127.512 920.939l-2.01-.01v8h2M131.512 920.939l1.99-.01v8h-2"/><path fill="#FFFFFF" stroke="#3397DA" stroke-width="3" d="M400-150h404.435V28H400z"/><path fill="#3397da" stroke="#3397da" d="M401-109h404.435"/><path fill="none" stroke="#3397DA" stroke-width="3" d="M400-150h404.435V28H400z"/><text x="410" y="-132" style="font:700 16px 'Lucida Console',monospace" fill="#000000">DigitalProductPassport</text><text x="410" y="-116" style="font:300 14px 'Lucida Console',monospace" fill="#999">＜＜untp.VerifiableCredential＞＞</text><text x="410" y="-92" style="font:700 14px 'Lucida Console',monospace" fill="#666">* @context:</text><text x="506.716" y="-92" style="font:300 14px 'Lucida Console',monospace" fill="#02b57b">Text[]</text><text x="410" y="-78" style="font:700 14px 'Lucida Console',monospace" fill="#666">* id:</text><text x="456.144" y="-78" style="font:300 14px 'Lucida Console',monospace" fill="#C9A30B">URI</text><text x="410" y="-64" style="font:700 14px 'Lucida Console',monospace" fill="#666">* issuer:</text><text x="489.858" y="-64" style="font:300 14px 'Lucida Console',monospace" fill="#02b57b">CredentialIssuer</text><text x="410" y="-50" style="font:700 14px 'Lucida Console',monospace" fill="#666">* validFrom:</text><text x="515.145" y="-50" style="font:300 14px 'Lucida Console',monospace" fill="#02b57b">DateTime</text><text x="426.857" y="-36" style="font:300 14px 'Lucida Console',monospace" fill="#666">validUntil:</text><text x="523.573" y="-36" style="font:300 14px 'Lucida Console',monospace" fill="#02b57b">DateTime</text><text x="410" y="-22" style="font:700 14px 'Lucida Console',monospace" fill="#666">* name:</text><text x="473.001" y="-22" style="font:300 14px 'Lucida Console',monospace" fill="#547000">Text</text><text x="426.857" y="-8" style="font:300 14px 'Lucida Console',monospace" fill="#666">credentialStatus:</text><text x="574.146" y="-8" style="font:300 14px 'Lucida Console',monospace" fill="#02b57b">BitstringStatusListEntry</text><text x="426.857" y="6" style="font:300 14px 'Lucida Console',monospace" fill="#666">renderTemplate2024:</text><text x="591.003" y="6" style="font:300 14px 'Lucida Console',monospace" fill="#02b57b">RenderTemplate2024</text><text x="426.857" y="20" style="font:300 14px 'Lucida Console',monospace" fill="#000000">credentialSubject:</text><text x="582.574" y="20" style="font:300 14px 'Lucida Console',monospace" fill="#547000">untp.Product</text><path fill="#FFFFFF" stroke="#99CBED" stroke-width="3" d="M341.209 81.714h440.006v330H341.209z"/><path fill="#99cbed" stroke="#99cbed" d="M342.21 106.714h440.005"/><path fill="none" stroke="#99CBED" stroke-width="3" d="M341.209 81.714h440.006v330H341.209z"/><text x="351.209" y="99.714" style="font:700 16px 'Lucida Console',monospace" fill="#000000">untp.Product</text><text x="351.209" y="123.714" style="font:700 14px 'Lucida Console',monospace" fill="#000000">* id:</text><text x="397.353" y="123.714" style="font:300 14px 'Lucida Console',monospace" fill="#C9A30B">URI</text><text x="351.209" y="137.714" style="font:700 14px 'Lucida Console',monospace" fill="#000000">* name:</text><text x="414.21" y="137.714" style="font:300 14px 'Lucida Console',monospace" fill="#547000">Text</text><text x="368.067" y="151.714" style="font:300 14px 'Lucida Console',monospace" fill="#000000">description:</text><text x="473.211" y="151.714" style="font:300 14px 'Lucida Console',monospace" fill="#547000">Text</text><text x="351.209" y="165.714" style="font:700 14px 'Lucida Console',monospace" fill="#000000">* idScheme:</text><text x="447.925" y="165.714" style="font:300 14px 'Lucida Console',monospace" fill="#02b57b">IdentifierScheme</text><text x="368.067" y="179.714" style="font:300 14px 'Lucida Console',monospace" fill="#000000">modelNumber:</text><text x="473.211" y="179.714" style="font:300 14px 'Lucida Console',monospace" fill="#02b57b">Text</text><text x="368.067" y="193.714" style="font:300 14px 'Lucida Console',monospace" fill="#000000">batchNumber:</text><text x="473.211" y="193.714" style="font:300 14px 'Lucida Console',monospace" fill="#02b57b">Text</text><text x="368.067" y="207.714" style="font:300 14px 'Lucida Console',monospace" fill="#000000">itemNumber:</text><text x="464.783" y="207.714" style="font:300 14px 'Lucida Console',monospace" fill="#02b57b">Text</text><text x="351.209" y="221.714" style="font:700 14px 'Lucida Console',monospace" fill="#000000">* idGranularity:</text><text x="490.069" y="221.714" style="font:300 14px 'Lucida Console',monospace" fill="#530abb">Code(ProductIDGranularity)</text><text x="368.067" y="235.714" style="font:300 14px 'Lucida Console',monospace" fill="#000000">productImage:</text><text x="481.64" y="235.714" style="font:300 14px 'Lucida Console',monospace" fill="#02b57b">Link</text><text x="368.067" y="249.714" style="font:300 14px 'Lucida Console',monospace" fill="#000000">characteristics:</text><text x="506.926" y="249.714" style="font:300 14px 'Lucida Console',monospace" fill="#02b57b">Characteristics</text><text x="351.209" y="263.714" style="font:700 14px 'Lucida Console',monospace" fill="#000000">* productCategory:</text><text x="506.926" y="263.714" style="font:300 14px 'Lucida Console',monospace" fill="#02b57b">Classification[]</text><text x="368.067" y="277.714" style="font:300 14px 'Lucida Console',monospace" fill="#000000">relatedDocument:</text><text x="506.926" y="277.714" style="font:300 14px 'Lucida Console',monospace" fill="#02b57b">Link[]</text><text x="368.067" y="291.714" style="font:300 14px 'Lucida Console',monospace" fill="#000000">relatedParty:</text><text x="481.64" y="291.714" style="font:300 14px 'Lucida Console',monospace" fill="#02b57b">PartyRole[]</text><text x="351.209" y="305.714" style="font:700 14px 'Lucida Console',monospace" fill="#000000">* producedAtFacility:</text><text x="532.212" y="305.714" style="font:300 14px 'Lucida Console',monospace" fill="#02b57b">Facility</text><text x="368.067" y="319.714" style="font:300 14px 'Lucida Console',monospace" fill="#000000">productionDate:</text><text x="498.498" y="319.714" style="font:300 14px 'Lucida Console',monospace" fill="#02b57b">Date</text><text x="351.209" y="333.714" style="font:700 14px 'Lucida Console',monospace" fill="#000000">* countryOfProduction:</text><text x="540.641" y="333.714" style="font:300 14px 'Lucida Console',monospace" fill="#02b57b">Country</text><text x="368.067" y="347.714" style="font:300 14px 'Lucida Console',monospace" fill="#000000">dimensions:</text><text x="464.783" y="347.714" style="font:300 14px 'Lucida Console',monospace" fill="#02b57b">Dimension</text><text x="368.067" y="361.714" style="font:300 14px 'Lucida Console',monospace" fill="#000000">materialProvenance:</text><text x="532.212" y="361.714" style="font:300 14px 'Lucida Console',monospace" fill="#02b57b">Material[]</text><text x="368.067" y="375.714" style="font:300 14px 'Lucida Console',monospace" fill="#000000">packaging:</text><text x="456.354" y="375.714" style="font:300 14px 'Lucida Console',monospace" fill="#02b57b">Package</text><text x="368.067" y="389.714" style="font:300 14px 'Lucida Console',monospace" fill="#000000">productLabel:</text><text x="481.64" y="389.714" style="font:300 14px 'Lucida Console',monospace" fill="#02b57b">Image[]</text><text x="368.067" y="403.714" style="font:300 14px 'Lucida Console',monospace" fill="#000000">performanceClaim:</text><text x="515.355" y="403.714" style="font:300 14px 'Lucida Console',monospace" fill="#02b57b">Claim[]</text><path fill="#FFFFFF" stroke="#97E5B8" stroke-width="3" d="M816.784 385.714h223.432v64H816.784z"/><path fill="#97e5b8" stroke="#97e5b8" d="M817.784 410.714h223.431"/><path fill="none" stroke="#97E5B8" stroke-width="3" d="M816.784 385.714h223.432v64H816.784z"/><text x="826.784" y="403.714" style="font:700 16px 'Lucida Console',monospace" fill="#000000">untp.PartyRole</text><text x="826.784" y="427.714" style="font:700 14px 'Lucida Console',monospace" fill="#000000">* role:</text><text x="889.785" y="427.714" style="font:300 14px 'Lucida Console',monospace" fill="#530abb">Code(PartyRole)</text><text x="826.784" y="441.714" style="font:700 14px 'Lucida Console',monospace" fill="#000000">* party:</text><text x="898.213" y="441.714" style="font:300 14px 'Lucida Console',monospace" fill="#02b57b">Party</text><path fill="#FFFFFF" stroke="#99CBED" stroke-width="3" d="M801.429 531.429h333.005v176H801.429z"/><path fill="#99cbed" stroke="#99cbed" d="M802.429 556.429h333.004"/><path fill="none" stroke="#99CBED" stroke-width="3" d="M801.429 531.429h333.005v176H801.429z"/><text x="811.429" y="549.429" style="font:700 16px 'Lucida Console',monospace" fill="#000000">untp.Party</text><text x="811.429" y="573.429" style="font:700 14px 'Lucida Console',monospace" fill="#000000">* id:</text><text x="857.572" y="573.429" style="font:300 14px 'Lucida Console',monospace" fill="#C9A30B">URI</text><text x="811.429" y="587.429" style="font:700 14px 'Lucida Console',monospace" fill="#000000">* name:</text><text x="874.43" y="587.429" style="font:300 14px 'Lucida Console',monospace" fill="#547000">Text</text><text x="828.286" y="601.429" style="font:300 14px 'Lucida Console',monospace" fill="#000000">description:</text><text x="933.431" y="601.429" style="font:300 14px 'Lucida Console',monospace" fill="#547000">Text</text><text x="828.286" y="615.429" style="font:300 14px 'Lucida Console',monospace" fill="#000000">registeredId:</text><text x="941.859" y="615.429" style="font:300 14px 'Lucida Console',monospace" fill="#02b57b">Text</text><text x="828.286" y="629.429" style="font:300 14px 'Lucida Console',monospace" fill="#000000">idScheme:</text><text x="908.144" y="629.429" style="font:300 14px 'Lucida Console',monospace" fill="#02b57b">IdentifierScheme</text><text x="828.286" y="643.429" style="font:300 14px 'Lucida Console',monospace" fill="#000000">registrationCountry:</text><text x="1000.86" y="643.429" style="font:300 14px 'Lucida Console',monospace" fill="#02b57b">Country</text><text x="828.286" y="657.429" style="font:300 14px 'Lucida Console',monospace" fill="#000000">partyAddress:</text><text x="941.859" y="657.429" style="font:300 14px 'Lucida Console',monospace" fill="#02b57b">Address</text><text x="828.286" y="671.429" style="font:300 14px 'Lucida Console',monospace" fill="#000000">organisationWebsite:</text><text x="1000.86" y="671.429" style="font:300 14px 'Lucida Console',monospace" fill="#02b57b">URI</text><text x="828.286" y="685.429" style="font:300 14px 'Lucida Console',monospace" fill="#000000">industryCategory:</text><text x="975.574" y="685.429" style="font:300 14px 'Lucida Console',monospace" fill="#02b57b">Classification[]</text><text x="828.286" y="699.429" style="font:300 14px 'Lucida Console',monospace" fill="#000000">partyAlsoKnownAs:</text><text x="975.574" y="699.429" style="font:300 14px 'Lucida Console',monospace" fill="#02b57b">Party[]</text><path fill="#FFFFFF" stroke="#99CBED" stroke-width="3" d="M999.429 93h348.576v232H999.429z"/><path fill="#99cbed" stroke="#99cbed" d="M1000.429 118h348.576"/><path fill="none" stroke="#99CBED" stroke-width="3" d="M999.429 93h348.576v232H999.429z"/><text x="1009.429" y="111" style="font:700 16px 'Lucida Console',monospace" fill="#000000">untp.Facility</text><text x="1009.429" y="135" style="font:700 14px 'Lucida Console',monospace" fill="#000000">* id:</text><text x="1055.572" y="135" style="font:300 14px 'Lucida Console',monospace" fill="#C9A30B">URI</text><text x="1009.429" y="149" style="font:700 14px 'Lucida Console',monospace" fill="#000000">* name:</text><text x="1072.43" y="149" style="font:300 14px 'Lucida Console',monospace" fill="#547000">Text</text><text x="1026.286" y="163" style="font:300 14px 'Lucida Console',monospace" fill="#000000">description:</text><text x="1131.431" y="163" style="font:300 14px 'Lucida Console',monospace" fill="#547000">Text</text><text x="1026.286" y="177" style="font:300 14px 'Lucida Console',monospace" fill="#000000">registeredId:</text><text x="1139.859" y="177" style="font:300 14px 'Lucida Console',monospace" fill="#02b57b">Text</text><text x="1026.286" y="191" style="font:300 14px 'Lucida Console',monospace" fill="#000000">idScheme:</text><text x="1106.144" y="191" style="font:300 14px 'Lucida Console',monospace" fill="#02b57b">IdentifierScheme</text><text x="1009.429" y="205" style="font:700 14px 'Lucida Console',monospace" fill="#000000">* countryOfOperation:</text><text x="1190.432" y="205" style="font:300 14px 'Lucida Console',monospace" fill="#02b57b">Country</text><text x="1009.429" y="219" style="font:700 14px 'Lucida Console',monospace" fill="#000000">* processCategory:</text><text x="1165.145" y="219" style="font:300 14px 'Lucida Console',monospace" fill="#02b57b">Classification[]</text><text x="1026.286" y="233" style="font:300 14px 'Lucida Console',monospace" fill="#000000">relatedParty:</text><text x="1139.859" y="233" style="font:300 14px 'Lucida Console',monospace" fill="#02b57b">PartyRole[]</text><text x="1026.286" y="247" style="font:300 14px 'Lucida Console',monospace" fill="#000000">relatedDocument:</text><text x="1165.145" y="247" style="font:300 14px 'Lucida Console',monospace" fill="#02b57b">Link[]</text><text x="1026.286" y="261" style="font:300 14px 'Lucida Console',monospace" fill="#000000">facilityAlsoKnownAs:</text><text x="1198.86" y="261" style="font:300 14px 'Lucida Console',monospace" fill="#02b57b">Facility[]</text><text x="1009.429" y="275" style="font:700 14px 'Lucida Console',monospace" fill="#000000">* locationInformation:</text><text x="1198.86" y="275" style="font:300 14px 'Lucida Console',monospace" fill="#02b57b">Location</text><text x="1009.429" y="289" style="font:700 14px 'Lucida Console',monospace" fill="#000000">* address:</text><text x="1097.716" y="289" style="font:300 14px 'Lucida Console',monospace" fill="#02b57b">Address</text><text x="1026.286" y="303" style="font:300 14px 'Lucida Console',monospace" fill="#000000">materialUsage:</text><text x="1148.288" y="303" style="font:300 14px 'Lucida Console',monospace" fill="#02b57b">MaterialUsage</text><text x="1026.286" y="317" style="font:300 14px 'Lucida Console',monospace" fill="#000000">performanceClaim:</text><text x="1173.574" y="317" style="font:300 14px 'Lucida Console',monospace" fill="#02b57b">Claim[]</text><path fill="#FFFFFF" stroke="#97E5B8" stroke-width="3" d="M1084.213 374.286h370.72v106h-370.72z"/><path fill="#97e5b8" stroke="#97e5b8" d="M1085.213 399.286h370.72"/><path fill="none" stroke="#97E5B8" stroke-width="3" d="M1084.213 374.286h370.72v106h-370.72z"/><text x="1094.213" y="392.286" style="font:700 16px 'Lucida Console',monospace" fill="#000000">untp.Address</text><text x="1094.213" y="416.286" style="font:700 14px 'Lucida Console',monospace" fill="#000000">* streetAddress:</text><text x="1233.073" y="416.286" style="font:300 14px 'Lucida Console',monospace" fill="#547000">streetAddress(Text)</text><text x="1094.213" y="430.286" style="font:700 14px 'Lucida Console',monospace" fill="#000000">* postalCode:</text><text x="1207.786" y="430.286" style="font:300 14px 'Lucida Console',monospace" fill="#547000">postalCode(Text)</text><text x="1094.213" y="444.286" style="font:700 14px 'Lucida Console',monospace" fill="#000000">* addressLocality:</text><text x="1249.93" y="444.286" style="font:300 14px 'Lucida Console',monospace" fill="#547000">addressLocality(Text)</text><text x="1094.213" y="458.286" style="font:700 14px 'Lucida Console',monospace" fill="#000000">* addressRegion:</text><text x="1233.073" y="458.286" style="font:300 14px 'Lucida Console',monospace" fill="#547000">addressRegion(Text)</text><text x="1094.213" y="472.286" style="font:700 14px 'Lucida Console',monospace" fill="#000000">* addressCountry:</text><text x="1241.501" y="472.286" style="font:300 14px 'Lucida Console',monospace" fill="#02b57b">Country</text><path fill="#FFFFFF" stroke="#97E5B8" stroke-width="3" d="M-114.359 263h253.146v106h-253.146z"/><path fill="#97e5b8" stroke="#97e5b8" d="M-113.36 288h253.147"/><path fill="none" stroke="#97E5B8" stroke-width="3" d="M-114.359 263h253.146v106h-253.146z"/><text x="-104.359" y="281" style="font:700 16px 'Lucida Console',monospace" fill="#000000">untp.Package</text><text x="-104.359" y="305" style="font:700 14px 'Lucida Console',monospace" fill="#000000">* description:</text><text x="17.643" y="305" style="font:300 14px 'Lucida Console',monospace" fill="#02b57b">Text</text><text x="-104.359" y="319" style="font:700 14px 'Lucida Console',monospace" fill="#000000">* dimensions:</text><text x="9.214" y="319" style="font:300 14px 'Lucida Console',monospace" fill="#02b57b">Dimension</text><text x="-104.359" y="333" style="font:700 14px 'Lucida Console',monospace" fill="#000000">* materialUsed:</text><text x="26.071" y="333" style="font:300 14px 'Lucida Console',monospace" fill="#02b57b">Material[]</text><text x="-87.502" y="347" style="font:300 14px 'Lucida Console',monospace" fill="#000000">packageLabel:</text><text x="26.071" y="347" style="font:300 14px 'Lucida Console',monospace" fill="#02b57b">Image[]</text><text x="-87.502" y="361" style="font:300 14px 'Lucida Console',monospace" fill="#000000">performanceClaim:</text><text x="59.786" y="361" style="font:300 14px 'Lucida Console',monospace" fill="#02b57b">Claim[]</text><path fill="#FFFFFF" stroke="#97E5B8" stroke-width="3" d="M280 455.714h253.146v92H280z"/><path fill="#97e5b8" stroke="#97e5b8" d="M281 480.714h253.146"/><path fill="none" stroke="#97E5B8" stroke-width="3" d="M280 455.714h253.146v92H280z"/><text x="290" y="473.714" style="font:700 16px 'Lucida Console',monospace" fill="#000000">untp.Image</text><text x="290" y="497.714" style="font:700 14px 'Lucida Console',monospace" fill="#000000">* name:</text><text x="353.001" y="497.714" style="font:300 14px 'Lucida Console',monospace" fill="#547000">Text</text><text x="306.857" y="511.714" style="font:300 14px 'Lucida Console',monospace" fill="#000000">description:</text><text x="412.002" y="511.714" style="font:300 14px 'Lucida Console',monospace" fill="#547000">Text</text><text x="290" y="525.714" style="font:700 14px 'Lucida Console',monospace" fill="#000000">* imageData:</text><text x="395.145" y="525.714" style="font:300 14px 'Lucida Console',monospace" fill="#02b57b">Base64</text><text x="290" y="539.714" style="font:700 14px 'Lucida Console',monospace" fill="#000000">* mediaType:</text><text x="395.145" y="539.714" style="font:300 14px 'Lucida Console',monospace" fill="#530abb">Code(MimeType)</text><path fill="#FFFFFF" stroke="#97E5B8" stroke-width="3" d="M-151.859-22.857H151.86v162h-303.719z"/><path fill="#97e5b8" stroke="#97e5b8" d="M-150.86 2.143h303.72"/><path fill="none" stroke="#97E5B8" stroke-width="3" d="M-151.859-22.857H151.86v162h-303.719z"/><text x="-141.859" y="-4.857" style="font:700 16px 'Lucida Console',monospace" fill="#000000">untp.Material</text><text x="-141.859" y="19.143" style="font:700 14px 'Lucida Console',monospace" fill="#000000">* name:</text><text x="-78.858" y="19.143" style="font:300 14px 'Lucida Console',monospace" fill="#02b57b">Text</text><text x="-141.859" y="33.143" style="font:700 14px 'Lucida Console',monospace" fill="#000000">* originCountry:</text><text x="-3" y="33.143" style="font:300 14px 'Lucida Console',monospace" fill="#02b57b">Country</text><text x="-141.859" y="47.143" style="font:700 14px 'Lucida Console',monospace" fill="#000000">* materialType:</text><text x="-11.429" y="47.143" style="font:300 14px 'Lucida Console',monospace" fill="#02b57b">Classification</text><text x="-141.859" y="61.143" style="font:700 14px 'Lucida Console',monospace" fill="#000000">* massFraction:</text><text x="-11.429" y="61.143" style="font:300 14px 'Lucida Console',monospace" fill="#02b57b">Numeric</text><text x="-125.002" y="75.143" style="font:300 14px 'Lucida Console',monospace" fill="#000000">mass:</text><text x="-78.858" y="75.143" style="font:300 14px 'Lucida Console',monospace" fill="#02b57b">Measure</text><text x="-125.002" y="89.143" style="font:300 14px 'Lucida Console',monospace" fill="#000000">recycledMassFraction:</text><text x="56.001" y="89.143" style="font:300 14px 'Lucida Console',monospace" fill="#02b57b">Numeric</text><text x="-125.002" y="103.143" style="font:300 14px 'Lucida Console',monospace" fill="#000000">hazardous:</text><text x="-36.715" y="103.143" style="font:300 14px 'Lucida Console',monospace" fill="#02b57b">Indicator</text><text x="-125.002" y="117.143" style="font:300 14px 'Lucida Console',monospace" fill="#000000">symbol:</text><text x="-62.001" y="117.143" style="font:300 14px 'Lucida Console',monospace" fill="#02b57b">Image</text><text x="-125.002" y="131.143" style="font:300 14px 'Lucida Console',monospace" fill="#000000">materialSafetyInformation:</text><text x="98.145" y="131.143" style="font:300 14px 'Lucida Console',monospace" fill="#02b57b">Link</text><path fill="#FFFFFF" stroke="#97E5B8" stroke-width="3" d="M32.71 424.286h200v106h-200z"/><path fill="#97e5b8" stroke="#97e5b8" d="M33.71 449.286h200"/><path fill="none" stroke="#97E5B8" stroke-width="3" d="M32.71 424.286h200v106h-200z"/><text x="42.71" y="442.286" style="font:700 16px 'Lucida Console',monospace" fill="#000000">untp.Dimension</text><text x="42.71" y="466.286" style="font:300 14px 'Lucida Console',monospace" fill="#000000">weight:</text><text x="105.711" y="466.286" style="font:300 14px 'Lucida Console',monospace" fill="#02b57b">Measure</text><text x="42.71" y="480.286" style="font:300 14px 'Lucida Console',monospace" fill="#000000">length:</text><text x="105.711" y="480.286" style="font:300 14px 'Lucida Console',monospace" fill="#02b57b">Measure</text><text x="42.71" y="494.286" style="font:300 14px 'Lucida Console',monospace" fill="#000000">width:</text><text x="97.282" y="494.286" style="font:300 14px 'Lucida Console',monospace" fill="#02b57b">Measure</text><text x="42.71" y="508.286" style="font:300 14px 'Lucida Console',monospace" fill="#000000">height:</text><text x="105.711" y="508.286" style="font:300 14px 'Lucida Console',monospace" fill="#02b57b">Measure</text><text x="42.71" y="522.286" style="font:300 14px 'Lucida Console',monospace" fill="#000000">volume:</text><text x="105.711" y="522.286" style="font:300 14px 'Lucida Console',monospace" fill="#02b57b">Measure</text><path fill="#FFFFFF" stroke="#99CBED" stroke-width="3" d="M390.067 579h344.576v190H390.067z"/><path fill="#99cbed" stroke="#99cbed" d="M391.067 604h344.577"/><path fill="none" stroke="#99CBED" stroke-width="3" d="M390.067 579h344.576v190H390.067z"/><text x="400.067" y="597" style="font:700 16px 'Lucida Console',monospace" fill="#000000">untp.Claim</text><text x="400.067" y="621" style="font:700 14px 'Lucida Console',monospace" fill="#000000">* id:</text><text x="446.211" y="621" style="font:300 14px 'Lucida Console',monospace" fill="#C9A30B">URI</text><text x="400.067" y="635" style="font:700 14px 'Lucida Console',monospace" fill="#000000">* name:</text><text x="463.068" y="635" style="font:300 14px 'Lucida Console',monospace" fill="#547000">Text</text><text x="416.925" y="649" style="font:300 14px 'Lucida Console',monospace" fill="#000000">description:</text><text x="522.069" y="649" style="font:300 14px 'Lucida Console',monospace" fill="#547000">Text</text><text x="400.067" y="663" style="font:700 14px 'Lucida Console',monospace" fill="#000000">* referenceCriteria:</text><text x="572.642" y="663" style="font:300 14px 'Lucida Console',monospace" fill="#02b57b">Criterion[]</text><text x="416.925" y="677" style="font:300 14px 'Lucida Console',monospace" fill="#000000">referenceRegulation:</text><text x="589.499" y="677" style="font:300 14px 'Lucida Console',monospace" fill="#02b57b">Regulation[]</text><text x="416.925" y="691" style="font:300 14px 'Lucida Console',monospace" fill="#000000">referenceStandard:</text><text x="572.642" y="691" style="font:300 14px 'Lucida Console',monospace" fill="#02b57b">Standard[]</text><text x="400.067" y="705" style="font:700 14px 'Lucida Console',monospace" fill="#000000">* claimDate:</text><text x="505.212" y="705" style="font:300 14px 'Lucida Console',monospace" fill="#02b57b">Date</text><text x="416.925" y="719" style="font:300 14px 'Lucida Console',monospace" fill="#000000">applicablePeriod:</text><text x="564.213" y="719" style="font:300 14px 'Lucida Console',monospace" fill="#02b57b">Period</text><text x="400.067" y="733" style="font:700 14px 'Lucida Console',monospace" fill="#000000">* claimedPerformance:</text><text x="581.07" y="733" style="font:300 14px 'Lucida Console',monospace" fill="#02b57b">Performance[]</text><text x="416.925" y="747" style="font:300 14px 'Lucida Console',monospace" fill="#000000">evidence:</text><text x="496.783" y="747" style="font:300 14px 'Lucida Console',monospace" fill="#02b57b">Link[]</text><text x="400.067" y="761" style="font:700 14px 'Lucida Console',monospace" fill="#000000">* conformityTopic:</text><text x="555.784" y="761" style="font:300 14px 'Lucida Console',monospace" fill="#02b57b">ConformityTopic</text><path fill="#FFFFFF" stroke="#97E5B8" stroke-width="3" d="M461.07 807h261.146v78H461.07z"/><path fill="#97e5b8" stroke="#97e5b8" d="M462.07 832h261.146"/><path fill="none" stroke="#97E5B8" stroke-width="3" d="M461.07 807h261.146v78H461.07z"/><text x="471.07" y="825" style="font:700 16px 'Lucida Console',monospace" fill="#000000">untp.Performance</text><text x="471.07" y="849" style="font:700 14px 'Lucida Console',monospace" fill="#000000">* metric:</text><text x="550.928" y="849" style="font:300 14px 'Lucida Console',monospace" fill="#02b57b">PerformanceMetric</text><text x="487.927" y="863" style="font:300 14px 'Lucida Console',monospace" fill="#000000">measure:</text><text x="559.357" y="863" style="font:300 14px 'Lucida Console',monospace" fill="#02b57b">Measure</text><text x="487.927" y="877" style="font:300 14px 'Lucida Console',monospace" fill="#000000">score:</text><text x="542.499" y="877" style="font:300 14px 'Lucida Console',monospace" fill="#02b57b">Score</text><path fill="#FFFFFF" stroke="#99CBED" stroke-width="3" d="M-242.29 562.857H77.857v162H-242.29z"/><path fill="#99cbed" stroke="#99cbed" d="M-241.29 587.857H78.858"/><path fill="none" stroke="#99CBED" stroke-width="3" d="M-242.29 562.857H77.857v162H-242.29z"/><text x="-232.29" y="580.857" style="font:700 16px 'Lucida Console',monospace" fill="#000000">untp.Criterion</text><text x="-232.29" y="604.857" style="font:700 14px 'Lucida Console',monospace" fill="#000000">* id:</text><text x="-186.146" y="604.857" style="font:300 14px 'Lucida Console',monospace" fill="#C9A30B">URI</text><text x="-232.29" y="618.857" style="font:700 14px 'Lucida Console',monospace" fill="#000000">* name:</text><text x="-169.289" y="618.857" style="font:300 14px 'Lucida Console',monospace" fill="#547000">Text</text><text x="-215.432" y="632.857" style="font:300 14px 'Lucida Console',monospace" fill="#000000">description:</text><text x="-110.288" y="632.857" style="font:300 14px 'Lucida Console',monospace" fill="#547000">Text</text><text x="-232.29" y="646.857" style="font:700 14px 'Lucida Console',monospace" fill="#000000">* version:</text><text x="-144.003" y="646.857" style="font:300 14px 'Lucida Console',monospace" fill="#02b57b">Text</text><text x="-232.29" y="660.857" style="font:700 14px 'Lucida Console',monospace" fill="#000000">* status:</text><text x="-152.431" y="660.857" style="font:300 14px 'Lucida Console',monospace" fill="#530abb">Code(CriterionStatus)</text><text x="-215.432" y="674.857" style="font:300 14px 'Lucida Console',monospace" fill="#000000">documentation:</text><text x="-93.43" y="674.857" style="font:300 14px 'Lucida Console',monospace" fill="#02b57b">URI</text><text x="-232.29" y="688.857" style="font:700 14px 'Lucida Console',monospace" fill="#000000">* conformityTopic:</text><text x="-76.573" y="688.857" style="font:300 14px 'Lucida Console',monospace" fill="#02b57b">ConformityTopic</text><text x="-232.29" y="702.857" style="font:700 14px 'Lucida Console',monospace" fill="#000000">* passThreshold:</text><text x="-93.43" y="702.857" style="font:300 14px 'Lucida Console',monospace" fill="#02b57b">PassThreshold[]</text><text x="-215.432" y="716.857" style="font:300 14px 'Lucida Console',monospace" fill="#000000">tag:</text><text x="-177.717" y="716.857" style="font:300 14px 'Lucida Console',monospace" fill="#02b57b">Text[]</text><path fill="#FFFFFF" stroke="#99CBED" stroke-width="3" d="M815.714 792.857h329.005v92H815.714z"/><path fill="#99cbed" stroke="#99cbed" d="M816.714 817.857h329.005"/><path fill="none" stroke="#99CBED" stroke-width="3" d="M815.714 792.857h329.005v92H815.714z"/><text x="825.714" y="810.857" style="font:700 16px 'Lucida Console',monospace" fill="#000000">untp.PerformanceMetric</text><text x="825.714" y="834.857" style="font:700 14px 'Lucida Console',monospace" fill="#000000">* id:</text><text x="871.858" y="834.857" style="font:300 14px 'Lucida Console',monospace" fill="#C9A30B">URI</text><text x="825.714" y="848.857" style="font:700 14px 'Lucida Console',monospace" fill="#000000">* name:</text><text x="888.715" y="848.857" style="font:300 14px 'Lucida Console',monospace" fill="#547000">Text</text><text x="842.572" y="862.857" style="font:300 14px 'Lucida Console',monospace" fill="#000000">definition:</text><text x="939.288" y="862.857" style="font:300 14px 'Lucida Console',monospace" fill="#02b57b">Text</text><text x="825.714" y="876.857" style="font:700 14px 'Lucida Console',monospace" fill="#000000">* allowedUnit:</text><text x="947.716" y="876.857" style="font:300 14px 'Lucida Console',monospace" fill="#530abb">Code(UnitOfMeasure)[]</text><path fill="#FFFFFF" stroke="#97E5B8" stroke-width="3" d="M305.641 941.571h253.146v92H305.641z"/><path fill="#97e5b8" stroke="#97e5b8" d="M306.64 966.571h253.147"/><path fill="none" stroke="#97E5B8" stroke-width="3" d="M305.641 941.571h253.146v92H305.641z"/><text x="315.641" y="959.571" style="font:700 16px 'Lucida Console',monospace" fill="#000000">untp.Measure</text><text x="315.641" y="983.571" style="font:700 14px 'Lucida Console',monospace" fill="#000000">* value:</text><text x="387.07" y="983.571" style="font:300 14px 'Lucida Console',monospace" fill="#02b57b">Numeric</text><text x="332.498" y="997.571" style="font:300 14px 'Lucida Console',monospace" fill="#000000">upperTolerance:</text><text x="462.929" y="997.571" style="font:300 14px 'Lucida Console',monospace" fill="#02b57b">Numeric</text><text x="332.498" y="1011.571" style="font:300 14px 'Lucida Console',monospace" fill="#000000">lowerTolerance:</text><text x="462.929" y="1011.571" style="font:300 14px 'Lucida Console',monospace" fill="#02b57b">Numeric</text><text x="315.641" y="1025.571" style="font:700 14px 'Lucida Console',monospace" fill="#000000">* unit:</text><text x="378.642" y="1025.571" style="font:300 14px 'Lucida Console',monospace" fill="#530abb">Code(UnitOfMeasure)</text><path fill="#FFFFFF" stroke="#97E5B8" stroke-width="3" d="M651.429 950h208.857v78H651.429z"/><path fill="#97e5b8" stroke="#97e5b8" d="M652.429 975h208.857"/><path fill="none" stroke="#97E5B8" stroke-width="3" d="M651.429 950h208.857v78H651.429z"/><text x="661.429" y="968" style="font:700 16px 'Lucida Console',monospace" fill="#000000">untp.Score</text><text x="661.429" y="992" style="font:700 14px 'Lucida Console',monospace" fill="#000000">* code:</text><text x="724.43" y="992" style="font:300 14px 'Lucida Console',monospace" fill="#02b57b">Text</text><text x="678.286" y="1006" style="font:300 14px 'Lucida Console',monospace" fill="#000000">rank:</text><text x="724.43" y="1006" style="font:300 14px 'Lucida Console',monospace" fill="#02b57b">Integer</text><text x="678.286" y="1020" style="font:300 14px 'Lucida Console',monospace" fill="#000000">definition:</text><text x="775.002" y="1020" style="font:300 14px 'Lucida Console',monospace" fill="#02b57b">Text</text><path fill="#FFFFFF" stroke="#99CBED" stroke-width="3" d="M168.072 805h216.857v106H168.072z"/><path fill="#99cbed" stroke="#99cbed" d="M169.072 830h216.857"/><path fill="none" stroke="#99CBED" stroke-width="3" d="M168.072 805h216.857v106H168.072z"/><text x="178.072" y="823" style="font:700 16px 'Lucida Console',monospace" fill="#000000">untp.Standard</text><text x="178.072" y="847" style="font:700 14px 'Lucida Console',monospace" fill="#000000">* id:</text><text x="224.216" y="847" style="font:300 14px 'Lucida Console',monospace" fill="#C9A30B">URI</text><text x="178.072" y="861" style="font:700 14px 'Lucida Console',monospace" fill="#000000">* name:</text><text x="241.073" y="861" style="font:300 14px 'Lucida Console',monospace" fill="#547000">Text</text><text x="194.929" y="875" style="font:300 14px 'Lucida Console',monospace" fill="#000000">description:</text><text x="300.074" y="875" style="font:300 14px 'Lucida Console',monospace" fill="#547000">Text</text><text x="178.072" y="889" style="font:700 14px 'Lucida Console',monospace" fill="#000000">* issuingParty:</text><text x="308.503" y="889" style="font:300 14px 'Lucida Console',monospace" fill="#02b57b">Party</text><text x="194.929" y="903" style="font:300 14px 'Lucida Console',monospace" fill="#000000">issueDate:</text><text x="283.216" y="903" style="font:300 14px 'Lucida Console',monospace" fill="#02b57b">Date</text><path fill="#FFFFFF" stroke="#99CBED" stroke-width="3" d="M-35.714 941.429h286.433v120H-35.714z"/><path fill="#99cbed" stroke="#99cbed" d="M-34.714 966.429h286.432"/><path fill="none" stroke="#99CBED" stroke-width="3" d="M-35.714 941.429h286.433v120H-35.714z"/><text x="-25.714" y="959.429" style="font:700 16px 'Lucida Console',monospace" fill="#000000">untp.Regulation</text><text x="-25.714" y="983.429" style="font:700 14px 'Lucida Console',monospace" fill="#000000">* id:</text><text x="20.429" y="983.429" style="font:300 14px 'Lucida Console',monospace" fill="#C9A30B">URI</text><text x="-25.714" y="997.429" style="font:700 14px 'Lucida Console',monospace" fill="#000000">* name:</text><text x="37.287" y="997.429" style="font:300 14px 'Lucida Console',monospace" fill="#547000">Text</text><text x="-8.857" y="1011.429" style="font:300 14px 'Lucida Console',monospace" fill="#000000">description:</text><text x="96.288" y="1011.429" style="font:300 14px 'Lucida Console',monospace" fill="#547000">Text</text><text x="-25.714" y="1025.429" style="font:700 14px 'Lucida Console',monospace" fill="#000000">* jurisdictionCountry:</text><text x="163.717" y="1025.429" style="font:300 14px 'Lucida Console',monospace" fill="#02b57b">Country</text><text x="-25.714" y="1039.429" style="font:700 14px 'Lucida Console',monospace" fill="#000000">* administeredBy:</text><text x="121.574" y="1039.429" style="font:300 14px 'Lucida Console',monospace" fill="#02b57b">Party</text><text x="-8.857" y="1053.429" style="font:300 14px 'Lucida Console',monospace" fill="#000000">effectiveDate:</text><text x="113.145" y="1053.429" style="font:300 14px 'Lucida Console',monospace" fill="#02b57b">Date</text></svg>