<svg xmlns="http://www.w3.org/2000/svg" viewBox="-170 -202.714 1224.433 1247"><rect width="1000%" height="1000%" x="-500%" y="-500%" fill="#EEEEEE"/><path fill="none" stroke="#EEEEEE" stroke-width="8" d="M338.336 122.639l-.01-.01H6.002v78.942"/><defs><linearGradient id="a" x1="0%" x2="50%" y1="0%" y2="50%"><stop offset="0%" stop-color="#3397DA"/><stop offset="100%" stop-color="#97E5B8"/></linearGradient></defs><path fill="none" stroke="url(#a)" stroke-width="3" d="M338.336 122.639l-.01-.01H6.002v78.942"/><path fill="none" stroke="url(#a)" stroke-width="1.5" d="M26.012 128.081l-2.01-.01v8h2M30.012 128.081l1.99-.01v8h-2"/><path fill="none" stroke="#EEEEEE" stroke-width="8" d="M281.846 93.039l-.01-.01h-318.12V3"/><defs><linearGradient id="b" x1="100%" x2="50%" y1="100%" y2="50%"><stop offset="0%" stop-color="#3397DA"/><stop offset="100%" stop-color="#2ECB70"/></linearGradient></defs><path fill="none" stroke="url(#b)" stroke-width="3" d="M281.846 93.039l-.01-.01h-318.12V3"/><path fill="none" stroke="url(#b)" stroke-width="1.5" d="M-16.274 76.51l-2.01-.01v8h2M-12.274 76.51l1.99-.01v8h-2"/><path fill="none" stroke="#EEEEEE" stroke-width="8" d="M451.318 152.239l-.01-.01h372.204v82.2"/><defs><linearGradient id="c" x1="0%" x2="50%" y1="0%" y2="50%"><stop offset="0%" stop-color="#3397DA"/><stop offset="100%" stop-color="#97E5B8"/></linearGradient></defs><path fill="none" stroke="url(#c)" stroke-width="3" d="M451.318 152.239l-.01-.01h372.204v82.2"/><path fill="none" stroke="#EEEEEE" stroke-width="8" d="M507.808 122.639l-.01-.01h346.775V60.57"/><defs><linearGradient id="d" x1="0%" x2="50%" y1="0%" y2="50%"><stop offset="0%" stop-color="#3397DA"/><stop offset="100%" stop-color="#97E5B8"/></linearGradient></defs><path fill="none" stroke="url(#d)" stroke-width="3" d="M507.808 122.639l-.01-.01h346.775V60.57"/><path fill="none" stroke="url(#d)" stroke-width="1.5" d="M874.583 113.081l-2.01-.01v8h2M878.583 113.081l1.99-.01v8h-2"/><path fill="none" stroke="#EEEEEE" stroke-width="8" d="M854.583 60.581l-.01-.01V-99.143h-6.642"/><defs><linearGradient id="e" x1="100%" x2="50%" y1="100%" y2="50%"><stop offset="0%" stop-color="#97E5B8"/><stop offset="100%" stop-color="#3397DA"/></linearGradient></defs><path fill="none" stroke="url(#e)" stroke-width="3" d="M854.583 60.581l-.01-.01V-99.143h-6.642"/><path fill="none" stroke="#EEEEEE" stroke-width="8" d="M312.97 560.11l-.01-.01H65.54V413.285"/><defs><linearGradient id="f" x1="100%" x2="50%" y1="100%" y2="50%"><stop offset="0%" stop-color="#3397DA"/><stop offset="100%" stop-color="#97E5B8"/></linearGradient></defs><path fill="none" stroke="url(#f)" stroke-width="3" d="M312.97 560.11l-.01-.01H65.54V413.285"/><path fill="none" stroke="url(#f)" stroke-width="1.5" d="M85.55 472.796l-2.01-.01v8h2M89.55 472.796l1.99-.01v8h-2"/><path fill="none" stroke="#EEEEEE" stroke-width="8" d="M423.971 586.11l-.01-.01h405.1V511.57"/><defs><linearGradient id="g" x1="0%" x2="50%" y1="0%" y2="50%"><stop offset="0%" stop-color="#3397DA"/><stop offset="100%" stop-color="#99CBED"/></linearGradient></defs><path fill="none" stroke="url(#g)" stroke-width="3" d="M423.971 586.11l-.01-.01h405.1V511.57"/><path fill="none" stroke="#EEEEEE" stroke-width="8" d="M308.772 290.2l-.01-.01H-90.535v103.596"/><defs><linearGradient id="h" x1="0%" x2="50%" y1="0%" y2="50%"><stop offset="0%" stop-color="#3397DA"/><stop offset="100%" stop-color="#97E5B8"/></linearGradient></defs><path fill="none" stroke="url(#h)" stroke-width="3" d="M308.772 290.2l-.01-.01H-90.535v103.596"/><path fill="none" stroke="url(#h)" stroke-width="1.5" d="M-70.525 353.796l-2.01-.01v8h2M-66.525 353.796l1.99-.01v8h-2"/><path fill="none" stroke="#EEEEEE" stroke-width="8" d="M419.63 320.867l-.01-.01h322.298v74.714"/><defs><linearGradient id="i" x1="0%" x2="50%" y1="0%" y2="50%"><stop offset="0%" stop-color="#3397DA"/><stop offset="100%" stop-color="#99CBED"/></linearGradient></defs><path fill="none" stroke="url(#i)" stroke-width="3" d="M419.63 320.867l-.01-.01h322.298v74.714"/><path fill="none" stroke="#EEEEEE" stroke-width="8" d="M308.875 418.62l-.01-.01H-12.498v14.176"/><defs><linearGradient id="j" x1="100%" x2="50%" y1="100%" y2="50%"><stop offset="0%" stop-color="#3397DA"/><stop offset="100%" stop-color="#97E5B8"/></linearGradient></defs><path fill="none" stroke="url(#j)" stroke-width="3" d="M308.875 418.62l-.01-.01H-12.498v14.176"/><path fill="none" stroke="url(#j)" stroke-width="1.5" d="M164.086 398.62l-2.01-.01v8h2M168.086 398.62l1.99-.01v8h-2"/><path fill="none" stroke="#EEEEEE" stroke-width="8" d="M-12.488 413.296l-.01-.01v426h83.93"/><defs><linearGradient id="k" x1="0%" x2="50%" y1="0%" y2="50%"><stop offset="0%" stop-color="#97E5B8"/><stop offset="100%" stop-color="#99CBED"/></linearGradient></defs><path fill="none" stroke="url(#k)" stroke-width="3" d="M-12.488 413.296l-.01-.01v426h83.93"/><path fill="none" stroke="#EEEEEE" stroke-width="8" d="M425.495 439.953l-.01-.01h490.721v13.628"/><defs><linearGradient id="l" x1="0%" x2="50%" y1="0%" y2="50%"><stop offset="0%" stop-color="#3397DA"/><stop offset="100%" stop-color="#99CBED"/></linearGradient></defs><path fill="none" stroke="url(#l)" stroke-width="3" d="M425.495 439.953l-.01-.01h490.721v13.628"/><path fill="none" stroke="#EEEEEE" stroke-width="8" d="M325.215-93.704l-.01-.01v231.143h126.103"/><defs><linearGradient id="m" x1="0%" x2="50%" y1="0%" y2="50%"><stop offset="0%" stop-color="#3397DA"/><stop offset="100%" stop-color="#3397DA"/></linearGradient></defs><path fill="none" stroke="url(#m)" stroke-width="3" d="M325.215-93.704l-.01-.01v231.143h126.103"/><path fill="none" stroke="url(#m)" stroke-width="1.5" d="M345.215 42.939l-2.01-.01v8h2M349.215 42.939l1.99-.01v8h-2"/><path fill="none" stroke="#EEEEEE" stroke-width="8" d="M394.827 241.439l-.01-.01v347.67h-26.356"/><defs><linearGradient id="n" x1="0%" x2="50%" y1="0%" y2="50%"><stop offset="0%" stop-color="#3397DA"/><stop offset="100%" stop-color="#3397DA"/></linearGradient></defs><path fill="none" stroke="url(#n)" stroke-width="3" d="M394.827 241.439l-.01-.01v347.67h-26.356"/><path fill="none" stroke="#EEEEEE" stroke-width="8" d="M394.827 241.439l-.01-.01v80.095h-30.626"/><defs><linearGradient id="o" x1="0%" x2="50%" y1="0%" y2="50%"><stop offset="0%" stop-color="#3397DA"/><stop offset="100%" stop-color="#3397DA"/></linearGradient></defs><path fill="none" stroke="url(#o)" stroke-width="3" d="M394.827 241.439l-.01-.01v80.095h-30.626"/><path fill="none" stroke="#EEEEEE" stroke-width="8" d="M394.827 241.439l-.01-.01v203.848h-27.642"/><defs><linearGradient id="p" x1="0%" x2="50%" y1="0%" y2="50%"><stop offset="0%" stop-color="#3397DA"/><stop offset="100%" stop-color="#3397DA"/></linearGradient></defs><path fill="none" stroke="url(#p)" stroke-width="3" d="M394.827 241.439l-.01-.01v203.848h-27.642"/><path fill="#FFFFFF" stroke="#3397DA" stroke-width="3" d="M122.988-182.714h404.435v178H122.988z"/><path fill="#3397da" stroke="#3397da" d="M123.988-141.714h404.435"/><path fill="none" stroke="#3397DA" stroke-width="3" d="M122.988-182.714h404.435v178H122.988z"/><text x="132.988" y="-164.714" style="font:700 16px 'Lucida Console',monospace" fill="#000000">DigitalTraceabilityEvent</text><text x="132.988" y="-148.714" style="font:300 14px 'Lucida Console',monospace" fill="#999">＜＜untp.VerifiableCredential＞＞</text><text x="132.988" y="-124.714" style="font:700 14px 'Lucida Console',monospace" fill="#666">* @context:</text><text x="229.704" y="-124.714" style="font:300 14px 'Lucida Console',monospace" fill="#02b57b">Text[]</text><text x="132.988" y="-110.714" style="font:700 14px 'Lucida Console',monospace" fill="#666">* id:</text><text x="179.131" y="-110.714" style="font:300 14px 'Lucida Console',monospace" fill="#C9A30B">URI</text><text x="132.988" y="-96.714" style="font:700 14px 'Lucida Console',monospace" fill="#666">* issuer:</text><text x="212.846" y="-96.714" style="font:300 14px 'Lucida Console',monospace" fill="#02b57b">CredentialIssuer</text><text x="132.988" y="-82.714" style="font:700 14px 'Lucida Console',monospace" fill="#666">* validFrom:</text><text x="238.132" y="-82.714" style="font:300 14px 'Lucida Console',monospace" fill="#02b57b">DateTime</text><text x="149.845" y="-68.714" style="font:300 14px 'Lucida Console',monospace" fill="#666">validUntil:</text><text x="246.561" y="-68.714" style="font:300 14px 'Lucida Console',monospace" fill="#02b57b">DateTime</text><text x="132.988" y="-54.714" style="font:700 14px 'Lucida Console',monospace" fill="#666">* name:</text><text x="195.989" y="-54.714" style="font:300 14px 'Lucida Console',monospace" fill="#547000">Text</text><text x="149.845" y="-40.714" style="font:300 14px 'Lucida Console',monospace" fill="#666">credentialStatus:</text><text x="297.133" y="-40.714" style="font:300 14px 'Lucida Console',monospace" fill="#02b57b">BitstringStatusListEntry</text><text x="149.845" y="-26.714" style="font:300 14px 'Lucida Console',monospace" fill="#666">renderTemplate2024:</text><text x="313.991" y="-26.714" style="font:300 14px 'Lucida Console',monospace" fill="#02b57b">RenderTemplate2024</text><text x="149.845" y="-12.714" style="font:300 14px 'Lucida Console',monospace" fill="#000000">credentialSubject:</text><text x="305.562" y="-12.714" style="font:300 14px 'Lucida Console',monospace" fill="#3397DA">LifecycleEvent[]</text><path fill="#FFFFFF" stroke="#3397DA" stroke-width="3" d="M225.345 63.429h338.943v148H225.345z"/><path fill="#3397da" stroke="#3397da" d="M226.345 88.429H565.29"/><path fill="none" stroke="#3397DA" stroke-width="3" d="M225.345 63.429h338.943v148H225.345z"/><text x="235.345" y="81.429" style="font:700 16px 'Lucida Console',monospace" fill="#000000">LifecycleEvent</text><text x="380.205" y="81.429" style="font:300 14px 'Lucida Console',monospace" fill="#000000">&lt;&lt;abstract&gt;&gt;</text><text x="235.345" y="105.429" style="font:700 14px 'Lucida Console',monospace" fill="#000000">* id:</text><text x="281.489" y="105.429" style="font:300 14px 'Lucida Console',monospace" fill="#C9A30B">URI</text><text x="252.203" y="119.429" style="font:300 14px 'Lucida Console',monospace" fill="#000000">name:</text><text x="298.346" y="119.429" style="font:300 14px 'Lucida Console',monospace" fill="#02b57b">Text</text><text x="252.203" y="133.429" style="font:300 14px 'Lucida Console',monospace" fill="#000000">description:</text><text x="357.347" y="133.429" style="font:300 14px 'Lucida Console',monospace" fill="#02b57b">Text</text><text x="235.345" y="147.429" style="font:700 14px 'Lucida Console',monospace" fill="#000000">* eventDate:</text><text x="340.49" y="147.429" style="font:300 14px 'Lucida Console',monospace" fill="#02b57b">DateTime</text><text x="252.203" y="161.429" style="font:300 14px 'Lucida Console',monospace" fill="#000000">sensorData:</text><text x="348.919" y="161.429" style="font:300 14px 'Lucida Console',monospace" fill="#547000">untp.SensorData[]</text><text x="252.203" y="175.429" style="font:300 14px 'Lucida Console',monospace" fill="#000000">relatedDocument:</text><text x="391.062" y="175.429" style="font:300 14px 'Lucida Console',monospace" fill="#547000">untp.Link[]</text><text x="235.345" y="189.429" style="font:700 14px 'Lucida Console',monospace" fill="#000000">* activityType:</text><text x="365.776" y="189.429" style="font:300 14px 'Lucida Console',monospace" fill="#547000">untp.Classification</text><text x="252.203" y="203.429" style="font:300 14px 'Lucida Console',monospace" fill="#000000">relatedParty:</text><text x="365.776" y="203.429" style="font:300 14px 'Lucida Console',monospace" fill="#547000">untp.PartyRole[]</text><path fill="#3397da" stroke="#EEEEEE" stroke-width="3" d="M394.817 205.429l-12 22 12-2h0l12 2-12-22"/><path fill="#3397da" stroke="#EEEEEE" stroke-width="3" d="M394.817 205.429l-12 22 12-2h0l12 2-12-22"/><path fill="#3397da" stroke="#3397da" stroke-width="3" d="M394.817 217.429v25.5"/><path fill="#FFFFFF" stroke="#3397DA" stroke-width="3" d="M201.958 534.099h333.005v78H201.958z"/><path fill="#3397da" stroke="#3397da" d="M202.958 559.1h333.005"/><path fill="none" stroke="#3397DA" stroke-width="3" d="M201.958 534.099h333.005v78H201.958z"/><text x="211.958" y="552.099" style="font:700 16px 'Lucida Console',monospace" fill="#000000">MakeEvent</text><text x="211.958" y="576.099" style="font:700 14px 'Lucida Console',monospace" fill="#000000">* inputProduct:</text><text x="342.389" y="576.099" style="font:300 14px 'Lucida Console',monospace" fill="#547000">untp.EventProduct[]</text><text x="211.958" y="590.099" style="font:700 14px 'Lucida Console',monospace" fill="#000000">* outputProduct:</text><text x="350.817" y="590.099" style="font:300 14px 'Lucida Console',monospace" fill="#547000">untp.EventProduct[]</text><text x="211.958" y="604.099" style="font:700 14px 'Lucida Console',monospace" fill="#000000">* madeAtFacility:</text><text x="359.246" y="604.099" style="font:300 14px 'Lucida Console',monospace" fill="#547000">untp.Facility</text><path fill="#FFFFFF" stroke="#3397DA" stroke-width="3" d="M197.903 259.524h332.576v92H197.903z"/><path fill="#3397da" stroke="#3397da" d="M198.903 284.524h332.576"/><path fill="none" stroke="#3397DA" stroke-width="3" d="M197.903 259.524h332.576v92H197.903z"/><text x="207.903" y="277.524" style="font:700 16px 'Lucida Console',monospace" fill="#000000">MoveEvent</text><text x="207.903" y="301.524" style="font:700 14px 'Lucida Console',monospace" fill="#000000">* movedProduct:</text><text x="338.334" y="301.524" style="font:300 14px 'Lucida Console',monospace" fill="#547000">untp.EventProduct[]</text><text x="207.903" y="315.524" style="font:700 14px 'Lucida Console',monospace" fill="#000000">* fromFacility:</text><text x="338.334" y="315.524" style="font:300 14px 'Lucida Console',monospace" fill="#547000">untp.Facility</text><text x="207.903" y="329.524" style="font:700 14px 'Lucida Console',monospace" fill="#000000">* toFacility:</text><text x="321.476" y="329.524" style="font:300 14px 'Lucida Console',monospace" fill="#547000">untp.Facility</text><text x="224.76" y="343.524" style="font:300 14px 'Lucida Console',monospace" fill="#000000">consignmentId:</text><text x="346.762" y="343.524" style="font:300 14px 'Lucida Console',monospace" fill="#02b57b">URI</text><path fill="#FFFFFF" stroke="#3397DA" stroke-width="3" d="M192.244 397.277h349.862v64H192.244z"/><path fill="#3397da" stroke="#3397da" d="M193.244 422.277h349.862"/><path fill="none" stroke="#3397DA" stroke-width="3" d="M192.244 397.277h349.862v64H192.244z"/><text x="202.244" y="415.277" style="font:700 16px 'Lucida Console',monospace" fill="#000000">ModifyEvent</text><text x="202.244" y="439.277" style="font:700 14px 'Lucida Console',monospace" fill="#000000">* modifiedProduct:</text><text x="357.961" y="439.277" style="font:300 14px 'Lucida Console',monospace" fill="#547000">untp.EventProduct[]</text><text x="202.244" y="453.277" style="font:700 14px 'Lucida Console',monospace" fill="#000000">* modifiedAtFacility:</text><text x="383.247" y="453.277" style="font:300 14px 'Lucida Console',monospace" fill="#547000">untp.Facility</text><path fill="#FFFFFF" stroke="#97E5B8" stroke-width="3" d="M-128.571 148.571h269.146v106h-269.146z"/><path fill="#97e5b8" stroke="#97e5b8" d="M-127.571 173.571h269.146"/><path fill="none" stroke="#97E5B8" stroke-width="3" d="M-128.571 148.571h269.146v106h-269.146z"/><text x="-118.571" y="166.571" style="font:700 16px 'Lucida Console',monospace" fill="#000000">untp.SensorData</text><text x="-118.571" y="190.571" style="font:700 14px 'Lucida Console',monospace" fill="#000000">* metric:</text><text x="-38.713" y="190.571" style="font:300 14px 'Lucida Console',monospace" fill="#02b57b">PerformanceMetric</text><text x="-118.571" y="204.571" style="font:700 14px 'Lucida Console',monospace" fill="#000000">* measure:</text><text x="-30.284" y="204.571" style="font:300 14px 'Lucida Console',monospace" fill="#02b57b">Measure[]</text><text x="-101.714" y="218.571" style="font:300 14px 'Lucida Console',monospace" fill="#000000">rawData:</text><text x="-30.284" y="218.571" style="font:300 14px 'Lucida Console',monospace" fill="#02b57b">Link[]</text><text x="-101.714" y="232.571" style="font:300 14px 'Lucida Console',monospace" fill="#000000">sensor:</text><text x="-38.713" y="232.571" style="font:300 14px 'Lucida Console',monospace" fill="#02b57b">Product</text><text x="-101.714" y="246.571" style="font:300 14px 'Lucida Console',monospace" fill="#000000">geoLocation:</text><text x="3.431" y="246.571" style="font:300 14px 'Lucida Console',monospace" fill="#02b57b">Coordinate</text><path fill="#FFFFFF" stroke="#97E5B8" stroke-width="3" d="M-150-50H77.432V56H-150z"/><path fill="#97e5b8" stroke="#97e5b8" d="M-149-25H78.432"/><path fill="none" stroke="#97E5B8" stroke-width="3" d="M-150-50H77.432V56H-150z"/><text x="-140" y="-32" style="font:700 16px 'Lucida Console',monospace" fill="#000000">untp.Link</text><text x="-140" y="-8" style="font:700 14px 'Lucida Console',monospace" fill="#000000">* linkURL:</text><text x="-51.713" y="-8" style="font:300 14px 'Lucida Console',monospace" fill="#02b57b">URI</text><text x="-140" y="6" style="font:700 14px 'Lucida Console',monospace" fill="#000000">* linkName:</text><text x="-43.284" y="6" style="font:300 14px 'Lucida Console',monospace" fill="#02b57b">Text</text><text x="-123.143" y="20" style="font:300 14px 'Lucida Console',monospace" fill="#000000">digestMultibase:</text><text x="15.717" y="20" style="font:300 14px 'Lucida Console',monospace" fill="#02b57b">Text</text><text x="-123.143" y="34" style="font:300 14px 'Lucida Console',monospace" fill="#000000">mediaType:</text><text x="-34.855" y="34" style="font:300 14px 'Lucida Console',monospace" fill="#02b57b">Text</text><text x="-123.143" y="48" style="font:300 14px 'Lucida Console',monospace" fill="#000000">linkType:</text><text x="-43.284" y="48" style="font:300 14px 'Lucida Console',monospace" fill="#02b57b">Text</text><path fill="#FFFFFF" stroke="#97E5B8" stroke-width="3" d="M698.571 181.429h249.881v106H698.571z"/><path fill="#97e5b8" stroke="#97e5b8" d="M699.571 206.429h249.881"/><path fill="none" stroke="#97E5B8" stroke-width="3" d="M698.571 181.429h249.881v106H698.571z"/><text x="708.571" y="199.429" style="font:700 16px 'Lucida Console',monospace" fill="#000000">untp.Classification</text><text x="708.571" y="223.429" style="font:700 14px 'Lucida Console',monospace" fill="#000000">* code:</text><text x="771.572" y="223.429" style="font:300 14px 'Lucida Console',monospace" fill="#02b57b">Text</text><text x="708.571" y="237.429" style="font:700 14px 'Lucida Console',monospace" fill="#000000">* name:</text><text x="771.572" y="237.429" style="font:300 14px 'Lucida Console',monospace" fill="#02b57b">Text</text><text x="725.429" y="251.429" style="font:300 14px 'Lucida Console',monospace" fill="#000000">definition:</text><text x="822.145" y="251.429" style="font:300 14px 'Lucida Console',monospace" fill="#02b57b">Text</text><text x="708.571" y="265.429" style="font:700 14px 'Lucida Console',monospace" fill="#000000">* schemeID:</text><text x="805.287" y="265.429" style="font:300 14px 'Lucida Console',monospace" fill="#02b57b">URI</text><text x="708.571" y="279.429" style="font:700 14px 'Lucida Console',monospace" fill="#000000">* schemeName:</text><text x="822.145" y="279.429" style="font:300 14px 'Lucida Console',monospace" fill="#02b57b">Text</text><path fill="#FFFFFF" stroke="#97E5B8" stroke-width="3" d="M742.857 28.571h223.432v64H742.857z"/><path fill="#97e5b8" stroke="#97e5b8" d="M743.857 53.571H967.29"/><path fill="none" stroke="#97E5B8" stroke-width="3" d="M742.857 28.571h223.432v64H742.857z"/><text x="752.857" y="46.571" style="font:700 16px 'Lucida Console',monospace" fill="#000000">untp.PartyRole</text><text x="752.857" y="70.571" style="font:700 14px 'Lucida Console',monospace" fill="#000000">* role:</text><text x="815.858" y="70.571" style="font:300 14px 'Lucida Console',monospace" fill="#530abb">Code(PartyRole)</text><text x="752.857" y="84.571" style="font:700 14px 'Lucida Console',monospace" fill="#000000">* party:</text><text x="824.287" y="84.571" style="font:300 14px 'Lucida Console',monospace" fill="#02b57b">Party</text><path fill="#FFFFFF" stroke="#99CBED" stroke-width="3" d="M681.429-187.143h333.005v176H681.429z"/><path fill="#99cbed" stroke="#99cbed" d="M682.429-162.143h333.004"/><path fill="none" stroke="#99CBED" stroke-width="3" d="M681.429-187.143h333.005v176H681.429z"/><text x="691.429" y="-169.143" style="font:700 16px 'Lucida Console',monospace" fill="#000000">untp.Party</text><text x="691.429" y="-145.143" style="font:700 14px 'Lucida Console',monospace" fill="#000000">* id:</text><text x="737.572" y="-145.143" style="font:300 14px 'Lucida Console',monospace" fill="#C9A30B">URI</text><text x="691.429" y="-131.143" style="font:700 14px 'Lucida Console',monospace" fill="#000000">* name:</text><text x="754.43" y="-131.143" style="font:300 14px 'Lucida Console',monospace" fill="#547000">Text</text><text x="708.286" y="-117.143" style="font:300 14px 'Lucida Console',monospace" fill="#000000">description:</text><text x="813.431" y="-117.143" style="font:300 14px 'Lucida Console',monospace" fill="#547000">Text</text><text x="708.286" y="-103.143" style="font:300 14px 'Lucida Console',monospace" fill="#000000">registeredId:</text><text x="821.859" y="-103.143" style="font:300 14px 'Lucida Console',monospace" fill="#02b57b">Text</text><text x="708.286" y="-89.143" style="font:300 14px 'Lucida Console',monospace" fill="#000000">idScheme:</text><text x="788.144" y="-89.143" style="font:300 14px 'Lucida Console',monospace" fill="#02b57b">IdentifierScheme</text><text x="708.286" y="-75.143" style="font:300 14px 'Lucida Console',monospace" fill="#000000">registrationCountry:</text><text x="880.86" y="-75.143" style="font:300 14px 'Lucida Console',monospace" fill="#02b57b">Country</text><text x="708.286" y="-61.143" style="font:300 14px 'Lucida Console',monospace" fill="#000000">partyAddress:</text><text x="821.859" y="-61.143" style="font:300 14px 'Lucida Console',monospace" fill="#02b57b">Address</text><text x="708.286" y="-47.143" style="font:300 14px 'Lucida Console',monospace" fill="#000000">organisationWebsite:</text><text x="880.86" y="-47.143" style="font:300 14px 'Lucida Console',monospace" fill="#02b57b">URI</text><text x="708.286" y="-33.143" style="font:300 14px 'Lucida Console',monospace" fill="#000000">industryCategory:</text><text x="855.574" y="-33.143" style="font:300 14px 'Lucida Console',monospace" fill="#02b57b">Classification[]</text><text x="708.286" y="-19.143" style="font:300 14px 'Lucida Console',monospace" fill="#000000">partyAlsoKnownAs:</text><text x="855.574" y="-19.143" style="font:300 14px 'Lucida Console',monospace" fill="#02b57b">Party[]</text><path fill="#FFFFFF" stroke="#97E5B8" stroke-width="3" d="M-168.571 374.286h312.147v78h-312.147z"/><path fill="#97e5b8" stroke="#97e5b8" d="M-167.571 399.286h312.147"/><path fill="none" stroke="#97E5B8" stroke-width="3" d="M-168.571 374.286h312.147v78h-312.147z"/><text x="-158.571" y="392.286" style="font:700 16px 'Lucida Console',monospace" fill="#000000">untp.EventProduct</text><text x="-158.571" y="416.286" style="font:700 14px 'Lucida Console',monospace" fill="#000000">* product:</text><text x="-70.284" y="416.286" style="font:300 14px 'Lucida Console',monospace" fill="#02b57b">Product</text><text x="-141.714" y="430.286" style="font:300 14px 'Lucida Console',monospace" fill="#000000">quantity:</text><text x="-61.856" y="430.286" style="font:300 14px 'Lucida Console',monospace" fill="#02b57b">Measure</text><text x="-141.714" y="444.286" style="font:300 14px 'Lucida Console',monospace" fill="#000000">disposition:</text><text x="-36.569" y="444.286" style="font:300 14px 'Lucida Console',monospace" fill="#530abb">Code(productStatus)</text><path fill="#FFFFFF" stroke="#99CBED" stroke-width="3" d="M654.774 337.571h348.576v232H654.774z"/><path fill="#99cbed" stroke="#99cbed" d="M655.774 362.571h348.576"/><path fill="none" stroke="#99CBED" stroke-width="3" d="M654.774 337.571h348.576v232H654.774z"/><text x="664.774" y="355.571" style="font:700 16px 'Lucida Console',monospace" fill="#000000">untp.Facility</text><text x="664.774" y="379.571" style="font:700 14px 'Lucida Console',monospace" fill="#000000">* id:</text><text x="710.917" y="379.571" style="font:300 14px 'Lucida Console',monospace" fill="#C9A30B">URI</text><text x="664.774" y="393.571" style="font:700 14px 'Lucida Console',monospace" fill="#000000">* name:</text><text x="727.775" y="393.571" style="font:300 14px 'Lucida Console',monospace" fill="#547000">Text</text><text x="681.631" y="407.571" style="font:300 14px 'Lucida Console',monospace" fill="#000000">description:</text><text x="786.776" y="407.571" style="font:300 14px 'Lucida Console',monospace" fill="#547000">Text</text><text x="681.631" y="421.571" style="font:300 14px 'Lucida Console',monospace" fill="#000000">registeredId:</text><text x="795.205" y="421.571" style="font:300 14px 'Lucida Console',monospace" fill="#02b57b">Text</text><text x="681.631" y="435.571" style="font:300 14px 'Lucida Console',monospace" fill="#000000">idScheme:</text><text x="761.49" y="435.571" style="font:300 14px 'Lucida Console',monospace" fill="#02b57b">IdentifierScheme</text><text x="664.774" y="449.571" style="font:700 14px 'Lucida Console',monospace" fill="#000000">* countryOfOperation:</text><text x="845.777" y="449.571" style="font:300 14px 'Lucida Console',monospace" fill="#02b57b">Country</text><text x="664.774" y="463.571" style="font:700 14px 'Lucida Console',monospace" fill="#000000">* processCategory:</text><text x="820.491" y="463.571" style="font:300 14px 'Lucida Console',monospace" fill="#02b57b">Classification[]</text><text x="681.631" y="477.571" style="font:300 14px 'Lucida Console',monospace" fill="#000000">relatedParty:</text><text x="795.205" y="477.571" style="font:300 14px 'Lucida Console',monospace" fill="#02b57b">PartyRole[]</text><text x="681.631" y="491.571" style="font:300 14px 'Lucida Console',monospace" fill="#000000">relatedDocument:</text><text x="820.491" y="491.571" style="font:300 14px 'Lucida Console',monospace" fill="#02b57b">Link[]</text><text x="681.631" y="505.571" style="font:300 14px 'Lucida Console',monospace" fill="#000000">facilityAlsoKnownAs:</text><text x="854.205" y="505.571" style="font:300 14px 'Lucida Console',monospace" fill="#02b57b">Facility[]</text><text x="664.774" y="519.571" style="font:700 14px 'Lucida Console',monospace" fill="#000000">* locationInformation:</text><text x="854.205" y="519.571" style="font:300 14px 'Lucida Console',monospace" fill="#02b57b">Location</text><text x="664.774" y="533.571" style="font:700 14px 'Lucida Console',monospace" fill="#000000">* address:</text><text x="753.061" y="533.571" style="font:300 14px 'Lucida Console',monospace" fill="#02b57b">Address</text><text x="681.631" y="547.571" style="font:300 14px 'Lucida Console',monospace" fill="#000000">materialUsage:</text><text x="803.633" y="547.571" style="font:300 14px 'Lucida Console',monospace" fill="#02b57b">MaterialUsage</text><text x="681.631" y="561.571" style="font:300 14px 'Lucida Console',monospace" fill="#000000">performanceClaim:</text><text x="828.919" y="561.571" style="font:300 14px 'Lucida Console',monospace" fill="#02b57b">Claim[]</text><path fill="#FFFFFF" stroke="#99CBED" stroke-width="3" d="M-148.571 674.286h440.006v330h-440.006z"/><path fill="#99cbed" stroke="#99cbed" d="M-147.571 699.286h440.005"/><path fill="none" stroke="#99CBED" stroke-width="3" d="M-148.571 674.286h440.006v330h-440.006z"/><text x="-138.571" y="692.286" style="font:700 16px 'Lucida Console',monospace" fill="#000000">untp.Product</text><text x="-138.571" y="716.286" style="font:700 14px 'Lucida Console',monospace" fill="#000000">* id:</text><text x="-92.428" y="716.286" style="font:300 14px 'Lucida Console',monospace" fill="#C9A30B">URI</text><text x="-138.571" y="730.286" style="font:700 14px 'Lucida Console',monospace" fill="#000000">* name:</text><text x="-75.57" y="730.286" style="font:300 14px 'Lucida Console',monospace" fill="#547000">Text</text><text x="-121.714" y="744.286" style="font:300 14px 'Lucida Console',monospace" fill="#000000">description:</text><text x="-16.569" y="744.286" style="font:300 14px 'Lucida Console',monospace" fill="#547000">Text</text><text x="-138.571" y="758.286" style="font:700 14px 'Lucida Console',monospace" fill="#000000">* idScheme:</text><text x="-41.856" y="758.286" style="font:300 14px 'Lucida Console',monospace" fill="#02b57b">IdentifierScheme</text><text x="-121.714" y="772.286" style="font:300 14px 'Lucida Console',monospace" fill="#000000">modelNumber:</text><text x="-16.569" y="772.286" style="font:300 14px 'Lucida Console',monospace" fill="#02b57b">Text</text><text x="-121.714" y="786.286" style="font:300 14px 'Lucida Console',monospace" fill="#000000">batchNumber:</text><text x="-16.569" y="786.286" style="font:300 14px 'Lucida Console',monospace" fill="#02b57b">Text</text><text x="-121.714" y="800.286" style="font:300 14px 'Lucida Console',monospace" fill="#000000">itemNumber:</text><text x="-24.998" y="800.286" style="font:300 14px 'Lucida Console',monospace" fill="#02b57b">Text</text><text x="-138.571" y="814.286" style="font:700 14px 'Lucida Console',monospace" fill="#000000">* idGranularity:</text><text x=".288" y="814.286" style="font:300 14px 'Lucida Console',monospace" fill="#530abb">Code(ProductIDGranularity)</text><text x="-121.714" y="828.286" style="font:300 14px 'Lucida Console',monospace" fill="#000000">productImage:</text><text x="-8.141" y="828.286" style="font:300 14px 'Lucida Console',monospace" fill="#02b57b">Link</text><text x="-121.714" y="842.286" style="font:300 14px 'Lucida Console',monospace" fill="#000000">characteristics:</text><text x="17.145" y="842.286" style="font:300 14px 'Lucida Console',monospace" fill="#02b57b">Characteristics</text><text x="-138.571" y="856.286" style="font:700 14px 'Lucida Console',monospace" fill="#000000">* productCategory:</text><text x="17.145" y="856.286" style="font:300 14px 'Lucida Console',monospace" fill="#02b57b">Classification[]</text><text x="-121.714" y="870.286" style="font:300 14px 'Lucida Console',monospace" fill="#000000">relatedDocument:</text><text x="17.145" y="870.286" style="font:300 14px 'Lucida Console',monospace" fill="#02b57b">Link[]</text><text x="-121.714" y="884.286" style="font:300 14px 'Lucida Console',monospace" fill="#000000">relatedParty:</text><text x="-8.141" y="884.286" style="font:300 14px 'Lucida Console',monospace" fill="#02b57b">PartyRole[]</text><text x="-138.571" y="898.286" style="font:700 14px 'Lucida Console',monospace" fill="#000000">* producedAtFacility:</text><text x="42.432" y="898.286" style="font:300 14px 'Lucida Console',monospace" fill="#02b57b">Facility</text><text x="-121.714" y="912.286" style="font:300 14px 'Lucida Console',monospace" fill="#000000">productionDate:</text><text x="8.717" y="912.286" style="font:300 14px 'Lucida Console',monospace" fill="#02b57b">Date</text><text x="-138.571" y="926.286" style="font:700 14px 'Lucida Console',monospace" fill="#000000">* countryOfProduction:</text><text x="50.86" y="926.286" style="font:300 14px 'Lucida Console',monospace" fill="#02b57b">Country</text><text x="-121.714" y="940.286" style="font:300 14px 'Lucida Console',monospace" fill="#000000">dimensions:</text><text x="-24.998" y="940.286" style="font:300 14px 'Lucida Console',monospace" fill="#02b57b">Dimension</text><text x="-121.714" y="954.286" style="font:300 14px 'Lucida Console',monospace" fill="#000000">materialProvenance:</text><text x="42.432" y="954.286" style="font:300 14px 'Lucida Console',monospace" fill="#02b57b">Material[]</text><text x="-121.714" y="968.286" style="font:300 14px 'Lucida Console',monospace" fill="#000000">packaging:</text><text x="-33.427" y="968.286" style="font:300 14px 'Lucida Console',monospace" fill="#02b57b">Package</text><text x="-121.714" y="982.286" style="font:300 14px 'Lucida Console',monospace" fill="#000000">productLabel:</text><text x="-8.141" y="982.286" style="font:300 14px 'Lucida Console',monospace" fill="#02b57b">Image[]</text><text x="-121.714" y="996.286" style="font:300 14px 'Lucida Console',monospace" fill="#000000">performanceClaim:</text><text x="25.574" y="996.286" style="font:300 14px 'Lucida Console',monospace" fill="#02b57b">Claim[]</text></svg>